<svg xmlns="http://www.w3.org/2000/svg" width="60" height="40" viewBox="0 0 60 40">
  <path id="cd9618d4b480e702a4bf72e47f04402c" d="M48.75,24c-.131,0-.255.03-.382.033a14.929,14.929,0,0,0,.382-3.367C48.75,11.463,40.354,4,30,4S11.25,11.463,11.25,20.667c0,.057.019.11.019.167C4.909,21.64,0,26.457,0,32.333,0,38.777,5.876,44,13.125,44H22.53a3.532,3.532,0,0,0,3.72-3.307V30.667H18.292L30,17.333,41.708,30.667H33.75V40.693A3.531,3.531,0,0,0,37.47,44H48.75C54.963,44,60,39.523,60,34S54.963,24,48.75,24Z" transform="translate(0 -4)" fill="#e3e3e3" opacity="0.7"/>
</svg>
