<svg xmlns="http://www.w3.org/2000/svg" width="934.242" height="1160.675" viewBox="0 0 934.242 1160.675">
  <g id="Componente_2_1" data-name="Componente 2 – 1" transform="translate(0 0)">
    <g id="Grupo_4385" data-name="Grupo 4385" transform="matrix(-0.438, -0.899, 0.899, -0.438, 451.189, 1160.675)" opacity="0.6">
      <path id="Caminho_3928" data-name="Caminho 3928" d="M1308.823,560.3c-16.729,26.833-33.942,53.276-54.556,77.261-30.624,35.639-65.607,65.421-107.992,85.407-8.774,4.119-19.391,11.419-15.285,22.811,6.723,13.377,7.583,48.55,29.628,37.189,70.037-38.535,120.978-104.647,189.983-145.07,73.177-48.479,172.811-47.531,238.733,11.525,1.147,1.028,74.28,49.219,75.4,50.282,9.129,7.986,13.314,6.538,21.926.182,20.76-15.334,94.841-53.205,147.359-75.6,17.359-7.4,7.122-58.016-17.549-51.132-63.637,17.753-29.69,10.577-67.056,18.882-32.888,7.309-92.52-3.7-96.192-4.022-36.254-3.122-73.026-3.8-109.219-8.19-62.772-4.491-125.266-20.131-185.895-34.766C1334.087,540.112,1321.664,535.147,1308.823,560.3Zm219.527,46.5c-150.483-54.893-253.8,99.084-368.42,169.121-8.81,4.452-10.816,3.681-14.187-5.909-2.041-12.5-18.368-32.184-.677-38.947,73.642-34.137,128.4-98.292,169.369-168.04,5.1-9.7,12.349-17.611,23.967-15.259,17.106,2.436,33.649,7.308,50.37,11.361,85.415,24.955,158.712,27.085,246.719,33.371,6.139.438,62.4,9.74,68.526,10.219,1.16.088,32.972,5.674,115.57-20.632,8.876-1.741,24.737,29.792,7.946,37.273-50.432,22.479-129.4,63.566-136.769,68.247-17.269,10.967-23.847,5.483-41.936-5.2-21.523-12.717-50.07-32.746-54.14-36.48C1586.671,638.559,1571.337,623.867,1528.35,606.8Z" transform="translate(-964.695 -395.064)" fill="#f2f2f2"/>
      <g id="Grupo_2039" data-name="Grupo 2039" transform="translate(193.636 170.399)">
        <path id="Caminho_3929" data-name="Caminho 3929" d="M1233.763,556.79" transform="translate(-802.766 -511.457)" fill="#f2f2f2"/>
        <path id="Caminho_3930" data-name="Caminho 3930" d="M1631.352,597.536c-5.177-1.533-65.611-15.915-65.611-15.915s-49.644-11.432-58.5-12.486-59.433-5.719-71.525-6.308-38.1-4.819-38.1-4.819-32.015-5.417-43.341-7.556c-31.754-4.717-34.792-9.373-45.764,13.244-23.054,32.914-39.24,48.067-61.612,74.347l-55.818,52.08c-16.083,10.994-29.779,19.994-48.466,29.269-2.051,1.019-5.546,2.436-6.157,5.306.726,26.665,26.722,7.973,36.83.191,7.021-4.022,25.677-18.869,31.267-24.552,0,0,51.633-45.782,52.364-46.61,14.772-11.906,24.654-23.63,37.6-37.6,13.528-14.6,24.224-31.918,40.763-40.188,11.508-5.754,44.741-2.3,58.406-3.738s38.229-.709,45.653-.576,38.553,3.149,47,4.987c8.854,1.922,21.624,4.4,36.188,9.014,13.572,4.3,38.774,17.575,42.85,18.559,4.305,1.041,73.633,54.552,89.087,48.9,5.169-1.891,122.888-51.407,127.76-55.58,1.208-1.032,18.315-14.639,5.753-14.51C1755.582,583.322,1665.782,610.983,1631.352,597.536Zm-144.831-23.989a423.952,423.952,0,0,0-52.749-4.221c-28.415-.359-55.558.452-55.916.434-12.371-.722-40.639-1.01-45.977,1.869-20.145,10.856-33.716,36.037-47.155,47.5-5.661,4.42-25.287,25.726-48.147,46.309-14.112,12.708-33.273,28.21-35.74,30.664-2.813,2.8-15.822,12.026-27.936,20.924-13.842,10.17-27.821,18.107-28.538,14.688-1.161-2.423-3.473-6.068.217-7.88a253.823,253.823,0,0,0,24.778-13.571c11.038-7.091,20.286-13.235,26.182-18.129.089-.071,11.857-9.156,25.765-22.51,22.638-21.735,52.771-52.966,60.983-61.506a185.465,185.465,0,0,0,27.741-38.477c11.06-18.564,14.347-21.1,34.837-17,10.843,2.166,16.8,2.715,28.485,5.559.452.111,13.9,3.07,37.211,6.139,8.712,1.147,19.724,1.47,30.691,2.4,19.719,1.67,39.28,3.415,44.967,3.955a370.652,370.652,0,0,1,49.024,8.991c15.4,4.026,76.835,18.072,89.813,24.065,34.514,10.595,77.744,3.335,99.563-2.924,5.958-1.71,46.46-10.865,46.633-10.887,17.686-2.281,5.373,5.847-11.472,10.236-32.848,8.549-97.946,44.67-108.616,42.371-29.234-6.3-75.25-40.147-83.312-44.71-10.458-5.918-29.1-11.68-34.336-13.164C1511.645,578.471,1487.075,573.635,1486.522,573.546Z" transform="translate(-1136.458 -546.555)" fill="#f2f2f2"/>
      </g>
      <path id="Caminho_3931" data-name="Caminho 3931" d="M1941.242,670.257c-7.051-30.567-8.588-62.8-21.433-91.621-18.316-35.1-62.83-24.246-112.577.492-12.114,6.024-50.685,1.537-50.685,1.537-91.47-9.926-184.428-7.65-274.286-29.331-37.5-5.156-109.985-36.635-141.3-12.238-32.286,31.847-49.52,76.3-81.4,109.095-71.228,89.247-162.123,70.054-139.316,121.918,11.8,29.07,18.408,60.651,35.647,87.081,54.339,73.022,207-115.659,268-141.022,78.426-47.62,161.489-28.667,213.507,46.459,5.657,7.632,47.4,51.646,58.8,59,10.1,6.516,18.226,8.358,32.888-2.193,0,0,13.274-9.97,13.314-10.5,13.026-14.471,26.363-28.653,42-40.316C1868.844,691.757,1955.562,725.079,1941.242,670.257Zm-38.84,30.917c-61.006,11.928-111.15,45.733-154.265,90.713-2.1,1.794-18.776,17.128-18.776,17.128-14.666,10.006-21.368,8.708-30.425.275-9.395-8.748-41.122-35.851-52.448-51.916-42.123-59.8-129.146-93.477-196.587-62.808-94.819,36.467-152.547,134.931-247.689,169.559-41.423,13.687-51.863-36.653-62.751-66.25-10.4-35.506-32.281-49.564,14.249-64.434,58.352-21.425,105.848-65.784,141.309-117.019,21.411-25.261,39.155-82.045,77.367-78.6a344.823,344.823,0,0,1,38.225,6.232c112.518,31.488,229.037,34.314,344.589,45.024,0,0,41.556,5.3,55.562-2.259,19.711-10.635,42.366-17.456,64.411-22.359,42.584-9.47,45.415,44.4,51.483,75.343C1931.32,676.507,1950.7,693.847,1902.4,701.174Z" transform="translate(-1010.692 -433.154)" fill="#f2f2f2"/>
      <path id="Caminho_3932" data-name="Caminho 3932" d="M2082.135,755.707c-15.52-60.363-12.885-129.328-51.145-180.54-45.392-50.06-107.11-40.094-165.13-14.422-5.621,2.489-12.049,5.709-25.686,5.727s-142.913-7.237-213.919-16.605c-88.441-4.633-196.335-77.509-272.555-3.588C1303.66,604.684,1274.192,687,1195.54,713.406c-50.335,25.579-121.2,14.3-89.872,94.921,24.866,57.152,33.167,125.665,79.046,170.184,85.03,68.128,187.312-24.53,253.287-81.318C1661.835,686.414,1633.527,946,1754.8,982.1c7.388,2.2,22.457.058,38.549-9.625,58.64-49.764,103.2-123.61,185.035-137.248C2032.132,817.926,2100.326,840.272,2082.135,755.707Zm-6.821,43.492C2065.29,821,2017.3,820.876,1996.25,824.61a5.4,5.4,0,0,1-4.372.979c-95.12,16.6-127.812,71.773-177.164,118.016-5.355,4.2-19.458,18.922-23.937,21.743-18.47,11.645-31.391,14.214-43.018,7.632-56.129-31.767-59.349-63.433-84.932-102.969-58.312-91.825-121.333-68.482-194.43-8.292l.044.018c-10.161,8.589-20.415,18.262-31.165,25.991a5.438,5.438,0,0,1-3.3,2.8l.049.013c-16.672,14.218-33.663,28.405-51.323,41.441l.049,0c-17.708,15.077-36.6,29.655-57,40.435l-.031-.044a117.641,117.641,0,0,1-29.278,13.718c-27.351,10.479-60.855,14.435-87.811,1.187-33.88-17.886-54.162-54.317-63.76-91.028l.08.009a57.676,57.676,0,0,1-5.453-14.728c-7.326-18.023-13.877-36.763-20.242-55.1-7.2-19.387-17.164-41.149-13.736-62.135,6.45-23.112,53.852-30.576,74.054-37.592a5.4,5.4,0,0,1,4.16-1.656c160.138-49.183,124.083-246.289,302.271-198.226,54.007,11.144,107.921,27.387,163.368,32.445,62.967,7.264,182.254,13.443,189.664,14.258s23.945-3.238,31.878-6.8c6.524-2.932,13.138-5.581,19.834-7.857l.022.049a117.771,117.771,0,0,1,31.076-8.916c28.671-6.019,62.378-4.633,86.9,12.712,30.628,23.015,44.891,62.2,48.563,99.961l-.075-.022a57.866,57.866,0,0,1,3.055,15.41c4.381,18.953,7.894,38.491,11.278,57.6C2075.615,755.955,2082.02,779.018,2075.313,799.2Z" transform="translate(-1074.891 -490.114)" fill="#f2f2f2"/>
      <path id="Caminho_3933" data-name="Caminho 3933" d="M1986.075,699.1c-4.288-22.878-8.673-45.733-12.907-68.624-5.315-35-21.381-80.007-62.635-80.007-38.951,0-67.5,12.615-90.895,25.628-8.744,4.864-33.84,1.329-33.84,1.329-60.5-7.246-121.692-8.677-182.436-13.992-70.28-5.147-137.2-28.91-206.748-38.07-35.235-4.8-62.414,22.284-78.625,51.5-54.113,86.625-97.516,130.152-194.7,161.006-17.429,7.729-13.6,28.02-7.792,42.469,7.854,21.912,15.8,43.788,23.6,65.723,10.786,33.712,33.721,75.334,74.5,69.093a105.8,105.8,0,0,0,28.573-7.893c99.337-40.524,169.192-161.282,277.658-176.186,87.949-10.161,116.4,59.974,159.252,119.867.682.952,8.872,12.686,16.168,22.771,4.389,6.064,8.451,11.539,10.36,13.713,6.821,7.756,18.431.788,39.418-12.686.677-.439,21.2-19.839,52-43.882,18.355-14.333,37.946-33.353,61.577-47.952,35.519-21.943,69.035-30.43,104.993-35.816C1998.193,740.522,1989.529,714.287,1986.075,699.1Zm-102.637,64.443c-33.034,16.6-51.2,27.294-74.551,48.24-14.054,12.606-65.385,56.992-70.263,59.211-15.617,7.114-23.01,22.165-39.554-2.2-6.028-8.881-14.515-21.465-16.357-23.847-28.959-37.455-42.792-71.888-82.687-98.894C1443.985,636.011,1276.277,983.963,1171.74,895.5c-24.818-25.455-30.864-62.6-43.926-94.832-37.184-84.286,15.5-47.013,90-100.776,25.641-18.431,47.509-40.745,66.892-65.793,34.46-42.323,57.4-118.162,124.132-102.756,66.795,12.69,132.7,31.045,200.534,37.782,58.476,5.111,117.466,5.4,175.663,13.027,0,0,30.226,2.879,40.387-2.383,50.234-26.009,93.907-37.494,123.313-3.26,20.486,29.057,20.584,66.7,28.384,100.581C2000.519,766.194,1965.54,722.3,1883.438,763.545Z" transform="translate(-1031.473 -450.723)" fill="#f2f2f2"/>
      <path id="Caminho_3934" data-name="Caminho 3934" d="M2033.382,721.792c-8.837-41.485-13.523-84.321-27.533-124.363v.031a85.674,85.674,0,0,0-9.886-18.856c-15.334-14.759-29.251-30.975-52.506-32.073-42.158-1.794-85.849,15.866-116.628,22.018-19.817,3.964-26.824,2.33-35.714,1.586-20.574-1.719-82.988-4.793-137.483-9.5-82.541-2.6-160.595-33.548-241.9-41.29-58.632-.284-86.4,58.286-115.775,100.962-18.032,25.477-38.1,48.949-62.927,67.99-70.179,58.007-157.547,28.166-119.991,111,15.286,39.567,26.687,81.123,46.849,118.445l0-.031c27.962,37.246,46.521,43.018,69.66,40.427,86.3-8.934,164.4-105.334,243.57-154.336,56.275-42.85,124.837-42.92,166.33,17.589.709,1.041,43.408,64.62,64.805,90.793,13.04,15.946,26.315,29.614,37.633,26.784,7.295-1.825,10.6-.5,20.18-10.165,11.365-11.468,36.276-34.6,62.4-59.194,21.983-22.16,45.362-42.309,72.885-57.187C1975.822,766.24,2057.371,809.519,2033.382,721.792Zm-151.975,94.3c-28.964,17.509-55.686,43.155-79.329,66.861-14.573,12.929-23.1,24.193-31.511,30.08-30.708,21.5-29.039,19.945-38.929,15.773-7.216-1.807-16.814-14.373-23.161-21.115-38.354-40.723-68.164-154.593-177.227-137.606-105.1,32.631-177.235,147.9-276.9,178.41-98.389,31.625-114.494-102.925-143-168.351-20.667-54.109,69.673-34.916,136.849-97.982,25.831-21.868,44.223-50.061,63.818-77.2,21.478-31.71,41.955-70.1,81.951-78.665,14.861-3.707,29.974-1.674,44.727.912,60.9,10.458,120.048,29.486,181.874,34.8,65.147,7.463,176.079,16.765,196.051,15.892,14.329-.629,25.292-9.581,100.822-25.757,34.942-5.364,57.3,6.954,72.313,28.246,15.972,22.656,23.626,55.477,29.256,87.98,4.549,26.253,7.783,52.3,13.013,72.615C2043.875,797.671,1957.707,764.438,1881.407,816.088Z" transform="translate(-1054.082 -469.461)" fill="#f2f2f2"/>
      <path id="Caminho_3935" data-name="Caminho 3935" d="M1880.8,598.691c-1.643-22.249-13.957-39.957-39.7-34.9-20.41,5.962-40.507,14.887-60.452,25.332-12.717,6.662-34.133-.283-48.24-1.418-74.205-10.17-149.965-7.2-223.987-20.215-22.9-3.172-45.485-7.937-68-12.991-27.13-2.906-95.651-32.742-114.255-10.887-51.576,79.927-103.62,153.477-194.661,189.08-18.072,13.935,1.714,45.285,6.472,63.5,5.143,21.708,20.1,37.246,44.727,28.184,113.737-53.963,200.074-208.591,341.006-175.242,1.489.35,2.99.735,4.5,1.13,4.208,1.431,17.549,5.971,18.55,6.334a135.842,135.842,0,0,1,49.285,30.491c10.808,7.229,43.5,47.877,84.238,72.876,8.043,4.934,15.077,4.478,24.485.186,4.8-2.193,20.636-13.762,20.358-14.076,43.15-39.235,90.943-70.373,152.037-83.652C1897.2,651.511,1882.622,617.423,1880.8,598.691Zm-10.2,61.01c-57.138,12.659-106.362,43.558-149.153,82.652-24.455,15.37-27.976,16.318-46.292,3.72-19.759-13.589-51.478-41.458-91.612-75.658a103.5,103.5,0,0,0-35.155-17.859c-1.125-.319-13.935-4.589-18.652-6.081l.026-.128c-1.369-.381-2.729-.744-4.088-1.09-140.938-35.749-229.99,116.7-342.233,173.989-18.024,6.25-31.652,2.711-38.172-16.34-5.484-16.016-11.109-31.984-15.862-48.248-3.131-10.719-.815-15.392,8.992-20.326,81.54-32.268,139.095-102.141,182.817-177.1,8.774-14.01,20.237-19.79,36.91-16.407,28.578,5.794,56.842,12.876,85.3,19.153,93.411,23.936,190.59,20.1,285.507,32.139,0,0,39.381,9.045,54.2,1.218,18.692-9.873,37.459-18.458,56.426-24.6,18.78-3.322,31.678,2.33,35.107,22.169,2.884,16.685,5.913,33.34,8.035,50.153C1884.088,652.131,1881.063,656.379,1870.6,659.7Z" transform="translate(-985.451 -413.518)" fill="#f2f2f2"/>
      <path id="Caminho_3936" data-name="Caminho 3936" d="M2115.753,753.772c-14.444-59.632-16.016-134.089-57.754-182.1-36.29-37.233-90.8-45.135-156.963-31.431-30,6.214-77.133,17.766-105.25,18.572-66.879-6.205-161.179-6.369-269.738-39.4l-25.509-4.753C1373.507,484.942,1345.4,560.462,1282.213,651.8c-50.942,68.207-102.069,60.429-166.366,95.058-38.221,23.723-20.3,73.832-7.858,107.7,23.688,56.6,33.193,123.344,82,164.156,110.083,81.881,229.275-43.43,312.246-112.926,163.544-146.332,142.217,88.578,267.9,119.823,0,0,27.706,3.969,36.79-.966,36.8-19.981,65.13-56.863,104.736-98.2,61.081-59.3,110.34-43.531,179.3-67.561C2132.457,841.5,2122.677,789.185,2115.753,753.772Zm-16.091,94.19c-18.834,14.984-45.219,16.366-67.9,19.564-122.569,9.492-150.3,101.7-219.159,145.792-16.27,10.413-30.212,6.055-37.968,6.392-95.466-10.577-109.4-196.641-206.035-162.03-75.715,34-127.025,105.976-198.213,147.856-50.508,31.262-120.881,53.32-172.311,13.9-54.1-40.44-62.985-113.524-88.2-172.988-7.9-24.277-20.765-53.218-7.663-77.974a20.167,20.167,0,0,1,6.763-9.456c16.229-17.775,42.07-23.312,63.956-30.053,172.767-41.56,129.7-250.771,327.9-208.764l22.767,5.16s.935.252,1.4.4c108.085,33.725,269.459,42.269,269.742,42.145.58.062,38.513-2.99,50.544-6.83,35.368-11.282,97.259-26.749,134.492-20.464,22.341,3.769,57.595,17.921,73.071,36.126,43.748,51.46,44.245,122.055,59.739,184.757,3.96,25.221,12.093,55.832-4.761,78.2A20.169,20.169,0,0,1,2099.662,847.962Z" transform="translate(-1092.741 -508.085)" fill="#f2f2f2"/>
    </g>
  </g>
</svg>
