<svg xmlns="http://www.w3.org/2000/svg" xmlns:xlink="http://www.w3.org/1999/xlink" width="591" height="368" viewBox="0 0 591 368">
  <defs>
    <clipPath id="clip-path">
      <rect id="Ret창ngulo_2002" data-name="Ret창ngulo 2002" width="218.756" height="218.144" fill="none"/>
    </clipPath>
    <clipPath id="clip-path-2">
      <path id="Caminho_3960" data-name="Caminho 3960" d="M101.453,105.23a4.539,4.539,0,1,1,4.539,4.538,4.539,4.539,0,0,1-4.539-4.538M105.881,0a105.879,105.879,0,0,0-6.314,211.569l-.164-.885a116.893,116.893,0,0,1,9.694-29.62,196.532,196.532,0,0,1,16.695-28s12.925-4.847,18.849-12.387a56.387,56.387,0,0,0,8.616-16.695L211.709,109.1c.032-1.07.053-2.142.053-3.219A105.881,105.881,0,0,0,105.881,0Z" fill="none"/>
    </clipPath>
    <clipPath id="clip-path-3">
      <rect id="Ret창ngulo_2000" data-name="Ret창ngulo 2000" width="125.248" height="194.859" fill="none"/>
    </clipPath>
    <clipPath id="clip-path-4">
      <path id="Caminho_3986" data-name="Caminho 3986" d="M336.641,321.554s-1.9,10.677-8.617,16.695-18.849,12.386-18.849,12.386S296.507,371.666,290.1,382.1c-5.3,8.63-5.982,25.729-5.443,25.755q2.415.113,4.858.117A105.2,105.2,0,0,0,394.631,306.793Z" transform="translate(-284.506 -306.793)" fill="none"/>
    </clipPath>
  </defs>
  <g id="Grupo_4259" data-name="Grupo 4259" transform="translate(-509 -170)">
    <g id="Grupo_4162" data-name="Grupo 4162" transform="translate(695 245)">
      <g id="Grupo_4161" data-name="Grupo 4161" clip-path="url(#clip-path)">
        <g id="Grupo_4155" data-name="Grupo 4155">
          <g id="Grupo_4154" data-name="Grupo 4154" clip-path="url(#clip-path-2)">
            <path id="Caminho_3946" data-name="Caminho 3946" d="M105.881,0a105.879,105.879,0,0,0-6.314,211.569l-.164-.884a116.888,116.888,0,0,1,9.694-29.62,196.549,196.549,0,0,1,16.695-28s12.925-4.847,18.849-12.386a56.386,56.386,0,0,0,8.617-16.695L211.709,109.1c.032-1.07.053-2.142.053-3.22A105.881,105.881,0,0,0,105.881,0m.111,109.768a4.539,4.539,0,1,1,4.539-4.539,4.539,4.539,0,0,1-4.539,4.539" fill="#0b0d0c"/>
            <path id="Caminho_3947" data-name="Caminho 3947" d="M121.011,21.525a97.632,97.632,0,1,0,97.632,97.631,97.631,97.631,0,0,0-97.632-97.631m0,101.485a3.854,3.854,0,1,1,3.854-3.854,3.854,3.854,0,0,1-3.854,3.854" transform="translate(-14.524 -13.372)" fill="#2c2c2e"/>
            <path id="Caminho_3948" data-name="Caminho 3948" d="M217.837,254.34A38.964,38.964,0,1,1,256.8,215.377a39.008,39.008,0,0,1-38.964,38.964m0-76.854a37.89,37.89,0,1,0,37.89,37.89,37.933,37.933,0,0,0-37.89-37.89" transform="translate(-111.12 -109.592)"/>
            <path id="Caminho_3949" data-name="Caminho 3949" d="M201.171,247.836A49.126,49.126,0,1,1,250.3,198.71a49.181,49.181,0,0,1-49.126,49.126m0-97.178a48.052,48.052,0,1,0,48.052,48.052,48.106,48.106,0,0,0-48.052-48.052" transform="translate(-94.454 -92.926)"/>
            <path id="Caminho_3950" data-name="Caminho 3950" d="M184.39,241.287a59.357,59.357,0,1,1,59.357-59.357,59.424,59.424,0,0,1-59.357,59.357m0-117.64a58.283,58.283,0,1,0,58.283,58.283,58.349,58.349,0,0,0-58.283-58.283" transform="translate(-77.674 -76.145)"/>
            <path id="Caminho_3951" data-name="Caminho 3951" d="M168.591,235.12a68.99,68.99,0,1,1,68.99-68.99,69.068,69.068,0,0,1-68.99,68.99m0-136.907a67.917,67.917,0,1,0,67.917,67.917,67.994,67.994,0,0,0-67.917-67.917" transform="translate(-61.875 -60.346)"/>
            <path id="Caminho_3952" data-name="Caminho 3952" d="M151.716,228.534A79.279,79.279,0,1,1,231,149.255a79.369,79.369,0,0,1-79.279,79.279m0-157.484a78.205,78.205,0,1,0,78.206,78.205A78.294,78.294,0,0,0,151.716,71.05" transform="translate(-45 -43.471)"/>
            <path id="Caminho_3953" data-name="Caminho 3953" d="M134.788,221.927a89.6,89.6,0,1,1,63.357-26.243,89.013,89.013,0,0,1-63.357,26.243m0-178.128a88.527,88.527,0,1,0,88.527,88.527A88.627,88.627,0,0,0,134.788,43.8" transform="translate(-28.071 -26.542)"/>
            <g id="Grupo_4153" data-name="Grupo 4153" transform="translate(44.093 8.557)" opacity="0.53">
              <g id="Grupo_4152" data-name="Grupo 4152">
                <g id="Grupo_4151" data-name="Grupo 4151" clip-path="url(#clip-path-3)">
                  <path id="Caminho_3954" data-name="Caminho 3954" d="M179.033,116.175a3.829,3.829,0,0,1,2.471.9l60.153-71.687a97.3,97.3,0,0,0-125.248,0l60.153,71.687a3.83,3.83,0,0,1,2.471-.9" transform="translate(-116.409 -22.591)" fill="#3d3d3f"/>
                  <path id="Caminho_3955" data-name="Caminho 3955" d="M179.033,288.49a3.83,3.83,0,0,1-2.471-.9l-60.153,71.687a97.3,97.3,0,0,0,125.248,0L181.5,287.589a3.829,3.829,0,0,1-2.471.9" transform="translate(-116.409 -187.214)" fill="#3d3d3f"/>
                  <path id="Caminho_3956" data-name="Caminho 3956" d="M240.375,116.175a3.845,3.845,0,0,1,.995.134L265.6,25.891a98.051,98.051,0,0,0-50.444,0l24.228,90.419a3.842,3.842,0,0,1,.994-.134" transform="translate(-177.751 -22.591)" fill="#535357"/>
                  <path id="Caminho_3957" data-name="Caminho 3957" d="M240.375,289.746a3.843,3.843,0,0,1-.994-.134L215.153,380.03a98.039,98.039,0,0,0,50.444,0L241.37,289.612a3.846,3.846,0,0,1-.995.134" transform="translate(-177.751 -188.471)" fill="#535357"/>
                </g>
              </g>
            </g>
            <path id="Caminho_3958" data-name="Caminho 3958" d="M233.923,203.282a28.786,28.786,0,1,0,28.787,28.786,28.787,28.787,0,0,0-28.787-28.786m0,33.212a4.426,4.426,0,1,1,4.426-4.426,4.426,4.426,0,0,1-4.426,4.426" transform="translate(-127.435 -126.284)" fill="#0b0d0c"/>
            <path id="Caminho_3959" data-name="Caminho 3959" d="M244.227,219.869a22.5,22.5,0,1,0,22.5,22.5,22.5,22.5,0,0,0-22.5-22.5m0,25.964a3.46,3.46,0,1,1,3.46-3.46,3.46,3.46,0,0,1-3.46,3.46" transform="translate(-137.74 -136.588)" fill="#f83a80"/>
          </g>
        </g>
        <g id="Grupo_4160" data-name="Grupo 4160" transform="translate(107.764 116.206)">
          <g id="Grupo_4159" data-name="Grupo 4159" clip-path="url(#clip-path-4)">
            <path id="Caminho_3961" data-name="Caminho 3961" d="M350.816,433.3c-2.7-9.851-5.329-19.838-9.8-29.048-5.806,3.874-11.622,6.927-11.622,6.927S322,423.452,315.652,433.9c5.028,6.02,8.912,12.909,13.137,19.511a82.621,82.621,0,0,0,8.516,11.452,104.493,104.493,0,0,0,20.958-8.193c-2.715-7.71-5.279-15.448-7.446-23.367" transform="translate(-303.855 -367.337)" fill="#0b0d0c"/>
            <path id="Caminho_3962" data-name="Caminho 3962" d="M474.654,330.727c6.352,4.234,12.7,8.368,18.882,12.867l.655.477a104.7,104.7,0,0,0,8.344-37.276l-45.729,11.64c6.4,3.37,11.84,8.289,17.847,12.293" transform="translate(-391.543 -306.794)" fill="#0b0d0c"/>
            <path id="Caminho_3963" data-name="Caminho 3963" d="M448.237,366.456c-3.076-2.231-6.166-4.444-9.328-6.552-3.126-2.084-6.378-3.964-9.436-6.151-5.952-4.257-11.572-9.131-18.361-12.038a1.728,1.728,0,0,1-.707-.527l-6.808,1.733s-1.9,10.677-8.616,16.695c-1.219,1.092-2.618,2.2-4.089,3.272a107.946,107.946,0,0,1,5.795,14.57c3.533,10.917,5.908,22.183,9.74,33.006q.925,2.611,1.834,5.255a105.649,105.649,0,0,0,43.406-46.769q-1.715-1.248-3.429-2.494" transform="translate(-350.595 -328.161)" fill="#0b0d0c"/>
            <path id="Caminho_3964" data-name="Caminho 3964" d="M305.527,510.077c-4.01-6.221-7.645-12.75-12.282-18.52-1.183,1.943-2.29,3.754-3.254,5.325-5.3,8.63-6.723,21.479-7.058,25.668,2.142.13,4.3.2,6.473.2a105.528,105.528,0,0,0,23.44-2.624,93.79,93.79,0,0,1-7.319-10.053" transform="translate(-283.529 -421.573)" fill="#0b0d0c"/>
            <path id="Caminho_3965" data-name="Caminho 3965" d="M181.327,137.274c.7.3,1.376.623,2.05.96l46.257-11.775c.032-1.07.053-2.142.053-3.22a105.881,105.881,0,1,0-112.2,105.688l-.164-.884a116.888,116.888,0,0,1,9.694-29.62q.518-1.073,1.046-2.122c-1.024-1.239-2.093-2.442-3.231-3.594-1.715-1.737.963-4.415,2.678-2.678q1.263,1.279,2.43,2.63a196.536,196.536,0,0,1,13.772-22.24,63.977,63.977,0,0,0,12.343-6.512c-.523-1.076-1.065-2.144-1.642-3.2-1.172-2.142,2.1-4.051,3.271-1.912.5.91.97,1.833,1.43,2.761a25.188,25.188,0,0,0,3.447-3.526,56.387,56.387,0,0,0,8.617-16.695l7.275-1.852a2.1,2.1,0,0,1,2.87-2.212m-57.41-10.147a4.539,4.539,0,1,1,4.539-4.539,4.539,4.539,0,0,1-4.539,4.539" transform="translate(-118.899 -126.99)" fill="#0b0d0c"/>
            <path id="Caminho_3966" data-name="Caminho 3966" d="M221.736,172.1c-3.126-2.084-6.378-3.964-9.436-6.151-5.952-4.257-11.572-9.132-18.361-12.038-2.236-.958-.3-4.22,1.912-3.271,7.672,3.285,13.808,9.067,20.682,13.648,4.348,2.9,8.694,5.752,12.986,8.705a97.574,97.574,0,1,0-71.789,59.333q-1.183-1.716-2.31-3.467c-5.037-7.814-9.476-16.117-16.061-22.786-1.715-1.737.963-4.416,2.678-2.678,6.667,6.752,11.244,15.1,16.319,23.032,1.089,1.7,2.208,3.384,3.378,5.03a96.961,96.961,0,0,0,23.594-9.035c-1.781-5.315-3.456-10.666-4.944-16.1-3.01-11-5.935-22.175-11.444-32.244-1.172-2.142,2.1-4.051,3.271-1.912a101.209,101.209,0,0,1,7.3,17.489c3.31,10.227,5.6,20.761,9.031,30.951a98.034,98.034,0,0,0,39.49-44.134c-2.079-1.486-4.173-2.953-6.3-4.371m-82.8-31.736a3.854,3.854,0,1,1,3.854-3.854,3.854,3.854,0,0,1-3.854,3.854" transform="translate(-133.423 -140.361)" fill="#2c2c2e"/>
            <circle id="Elipse_1" data-name="Elipse 1" cx="38.427" cy="38.427" r="38.427" transform="translate(-32.685 -42.273)" fill="none" stroke="#000" stroke-miterlimit="10" stroke-width="2.835"/>
            <path id="Caminho_3967" data-name="Caminho 3967" d="M249.753,254.515c-1.167-2.133,2.073-4.034,3.256-1.936a48.455,48.455,0,1,0-2.945,2.525C249.959,254.908,249.859,254.71,249.753,254.515Z" transform="translate(-214.234 -220.795)" fill="none" stroke="#000" stroke-miterlimit="10" stroke-width="2.835"/>
            <path id="Caminho_3968" data-name="Caminho 3968" d="M202.316,257.572a58.279,58.279,0,1,1,56.557-44.2c.043.015.085.029.128.047.293.126.58.261.869.394a59.451,59.451,0,1,0-22.947,33.671c-.132-.347-.262-.694-.4-1.039a57.968,57.968,0,0,1-34.21,11.127" transform="translate(-196.573 -203.135)"/>
            <path id="Caminho_3969" data-name="Caminho 3969" d="M416.382,343.47a58.477,58.477,0,0,1-18.212,27q.212.524.418,1.051a59.555,59.555,0,0,0,18.774-27.59q-.486-.237-.98-.462" transform="translate(-355.117 -329.578)"/>
            <path id="Caminho_3970" data-name="Caminho 3970" d="M343.3,446.1a67.492,67.492,0,0,1-33.719,11.2q.473.5.931,1.016a68.556,68.556,0,0,0,33.115-11.149c-.108-.356-.218-.712-.328-1.068" transform="translate(-300.084 -393.332)"/>
            <path id="Caminho_3971" data-name="Caminho 3971" d="M186.517,115.572a67.914,67.914,0,0,1,65.211,86.893c.311.214.621.427.93.645a68.99,68.99,0,1,0-66.347,49.367,1.674,1.674,0,0,1-.1-1.075,67.915,67.915,0,0,1,.311-135.829" transform="translate(-180.774 -187.335)"/>
            <path id="Caminho_3972" data-name="Caminho 3972" d="M430.449,356.637a68.226,68.226,0,0,1-23.277,31.591c.114.361.229.722.341,1.084a69.315,69.315,0,0,0,23.846-32.03q-.453-.324-.909-.644" transform="translate(-360.709 -337.757)"/>
            <path id="Caminho_3973" data-name="Caminho 3973" d="M169.642,244.82A78.221,78.221,0,1,1,243.607,192c.3.22.6.441.909.659a79.277,79.277,0,1,0-74.873,53.23c2.6,0,5.174-.13,7.713-.376q-.348-.51-.7-1.015c-2.31.206-4.648.318-7.01.318" transform="translate(-163.9 -170.46)"/>
            <path id="Caminho_3974" data-name="Caminho 3974" d="M444.579,373.73c-.178-.127-.354-.256-.532-.385a78.652,78.652,0,0,1-28.838,35.721q.151.547.3,1.094a79.744,79.744,0,0,0,29.435-36.175c-.122-.086-.245-.169-.366-.256" transform="translate(-365.702 -348.137)"/>
            <path id="Caminho_3975" data-name="Caminho 3975" d="M358.54,473.3a77.68,77.68,0,0,1-29.182,10.477q.333.494.662.991a78.741,78.741,0,0,0,28.815-10.392q-.147-.538-.294-1.076" transform="translate(-312.369 -410.233)"/>
            <path id="Caminho_3976" data-name="Caminho 3976" d="M371.312,500.336a87.912,87.912,0,0,1-26.107,9.679q.31.5.621.992a88.56,88.56,0,0,0,25.824-9.557c-.115-.37-.225-.743-.338-1.114" transform="translate(-322.214 -427.027)"/>
            <path id="Caminho_3977" data-name="Caminho 3977" d="M152.714,238.213a88.527,88.527,0,1,1,82.78-57.15l.955.636a89.645,89.645,0,1,0-83.735,57.588,90.82,90.82,0,0,0,13.853-1.063l-.621-1a88.838,88.838,0,0,1-13.232.989" transform="translate(-146.971 -153.532)"/>
            <path id="Caminho_3978" data-name="Caminho 3978" d="M457.561,388.555a89.088,89.088,0,0,1-34.744,40.389q.161.566.325,1.132a90.39,90.39,0,0,0,35.369-40.9q-.474-.314-.95-.623" transform="translate(-370.428 -357.586)"/>
            <g id="Grupo_4158" data-name="Grupo 4158" transform="translate(-56.881 -101.074)" opacity="0.53">
              <g id="Grupo_4157" data-name="Grupo 4157" transform="translate(0 0)">
                <g id="Grupo_4156" data-name="Grupo 4156" clip-path="url(#clip-path-3)">
                  <path id="Caminho_3979" data-name="Caminho 3979" d="M196.958,133.533a3.829,3.829,0,0,1,2.471.9l60.153-71.687a97.3,97.3,0,0,0-125.248,0l60.153,71.687a3.83,3.83,0,0,1,2.471-.9" transform="translate(-134.334 -39.95)" fill="#3d3d3f"/>
                  <path id="Caminho_3980" data-name="Caminho 3980" d="M401.12,422.936c3.319,10.256,5.617,20.821,9.06,31.036a97.785,97.785,0,0,0,13.215-9.346l-25.367-30.231c1.14,2.805,2.16,5.66,3.092,8.541" transform="translate(-298.147 -272.564)" fill="#3d3d3f"/>
                  <path id="Caminho_3981" data-name="Caminho 3981" d="M238.177,371.61c-3.01-11-5.935-22.175-11.444-32.244a1.776,1.776,0,0,1,.023-1.852l-27.327-32.567a3.839,3.839,0,0,1-4.943,0l-60.153,71.687a97.55,97.55,0,0,0,81.215,21.02q-1.2-1.733-2.336-3.5c-5.037-7.814-9.476-16.117-16.061-22.786-1.715-1.737.963-4.415,2.678-2.678,6.668,6.752,11.245,15.1,16.319,23.032,1.1,1.716,2.227,3.413,3.408,5.072a96.075,96.075,0,0,0,23.591-8.993c-1.792-5.343-3.476-10.722-4.971-16.187" transform="translate(-134.334 -204.572)" fill="#3d3d3f"/>
                  <path id="Caminho_3982" data-name="Caminho 3982" d="M258.3,133.533a3.846,3.846,0,0,1,.995.135L283.522,43.25a98.051,98.051,0,0,0-50.444,0l24.228,90.419a3.844,3.844,0,0,1,.994-.135" transform="translate(-195.676 -39.95)" fill="#535357"/>
                  <path id="Caminho_3983" data-name="Caminho 3983" d="M274.555,395.407c-5.037-7.814-9.476-16.117-16.061-22.786-1.715-1.737.963-4.415,2.678-2.678,6.667,6.752,11.244,15.1,16.319,23.032,1.1,1.716,2.227,3.413,3.409,5.073q1.318-.313,2.622-.659L259.295,306.97a3.745,3.745,0,0,1-1.989,0l-24.228,90.419a98.087,98.087,0,0,0,43.814,1.522q-1.2-1.733-2.336-3.5" transform="translate(-195.676 -205.829)" fill="#535357"/>
                </g>
              </g>
            </g>
            <path id="Caminho_3984" data-name="Caminho 3984" d="M251.848,220.64a28.786,28.786,0,1,0,28.787,28.786,28.787,28.787,0,0,0-28.787-28.786m0,33.212a4.426,4.426,0,1,1,4.426-4.426,4.426,4.426,0,0,1-4.426,4.426" transform="translate(-246.335 -253.273)" fill="#0b0d0c"/>
            <path id="Caminho_3985" data-name="Caminho 3985" d="M262.152,237.227a22.5,22.5,0,1,0,22.5,22.5,22.5,22.5,0,0,0-22.5-22.5m0,25.964a3.46,3.46,0,1,1,3.46-3.46,3.46,3.46,0,0,1-3.46,3.46" transform="translate(-256.639 -263.577)" fill="#f83a80"/>
          </g>
        </g>
      </g>
    </g>
    <text id="_4" data-name="4" transform="translate(587 432)" font-size="250" font-family="FugazOne-Regular, Fugaz One" letter-spacing="0.02em"><tspan x="-77.75" y="0">4</tspan></text>
    <text id="_4-2" data-name="4" transform="translate(1022 432)" font-size="250" font-family="FugazOne-Regular, Fugaz One" letter-spacing="0.02em"><tspan x="-77.75" y="0">4</tspan></text>
  </g>
</svg>
