<svg xmlns="http://www.w3.org/2000/svg" width="19.956" height="20" viewBox="0 0 19.956 20">
  <path id="Caminho_4014" data-name="Caminho 4014" d="M5.032,19.833c-.143.535-.285,1.177-.464,1.855A1.407,1.407,0,0,0,6.28,23.4l1.82-.464a2.9,2.9,0,0,1,1.82.178,9.728,9.728,0,0,0,5.566.749A9.991,9.991,0,1,0,4.853,18.049,2.769,2.769,0,0,1,5.032,19.833Zm5.137-10.2a1.341,1.341,0,0,1,.642-.321c.143,0,.821-.071,1.035.428s.714,1.677.749,1.82a.439.439,0,0,1,.036.428.924.924,0,0,1-.25.392,4.531,4.531,0,0,1-.357.428.365.365,0,0,0-.107.5,7.483,7.483,0,0,0,1.356,1.677,7.99,7.99,0,0,0,1.962,1.213c.25.107.392.107.535-.071s.607-.714.785-.963.321-.214.571-.107c.214.071,1.427.678,1.677.785a1.03,1.03,0,0,1,.464.285,1.8,1.8,0,0,1-.143,1.142,2.332,2.332,0,0,1-1.142,1.249c-.464.178-1,.25-3.318-.678a10.675,10.675,0,0,1-4.317-3.675,4.927,4.927,0,0,1-1-2.533A2.535,2.535,0,0,1,10.169,9.63Z" transform="translate(-3.995 -3.989)" fill="#fff"/>
</svg>
