<svg id="Componente_13_1" data-name="Componente 13 – 1" xmlns="http://www.w3.org/2000/svg" width="24.265" height="24.265" viewBox="0 0 24.265 24.265">
  <path id="Caminho_4006" data-name="Caminho 4006" d="M22.75,19a3.75,3.75,0,1,0,3.75,3.75A3.8,3.8,0,0,0,22.75,19Z" transform="translate(-10.617 -10.617)" fill="#fff"/>
  <path id="Caminho_4007" data-name="Caminho 4007" d="M17.691,0H6.53A6.515,6.515,0,0,0,0,6.53V17.736a6.515,6.515,0,0,0,6.53,6.53H17.736a6.515,6.515,0,0,0,6.53-6.53V6.53A6.581,6.581,0,0,0,17.691,0ZM12.133,17.691a5.6,5.6,0,1,1,5.6-5.6A5.611,5.611,0,0,1,12.133,17.691ZM19.589,6.044a1.412,1.412,0,1,1-1.412-1.412h0a1.451,1.451,0,0,1,1.412,1.412Z" fill="#fff"/>
</svg>
