<svg xmlns="http://www.w3.org/2000/svg" width="42.902" height="38.137" viewBox="0 0 42.902 38.137">
  <path id="_8665531_house_icon" data-name="8665531_house_icon" d="M42.889,19.031a2.407,2.407,0,0,1-2.384,2.391H38.122l.052,11.925a5.355,5.355,0,0,1-.037.6v1.207a2.979,2.979,0,0,1-2.979,2.979H33.966c-.082,0-.164-.067-.246-.007-.1-.06-.209.007-.313.007H29.2a2.979,2.979,0,0,1-2.979-2.979V28.6a2.381,2.381,0,0,0-2.384-2.384H19.069A2.381,2.381,0,0,0,16.685,28.6v6.555a2.979,2.979,0,0,1-2.979,2.979H9.542c-.112,0-.223-.007-.335-.015-.089.007-.179.015-.268.015H7.747a2.979,2.979,0,0,1-2.979-2.979V26.815c0-.067,0-.142.007-.209V21.422H2.387A2.361,2.361,0,0,1,0,19.031a2.42,2.42,0,0,1,.746-1.788L19.843.6A2.146,2.146,0,0,1,21.482,0a2.506,2.506,0,0,1,1.572.522L42.07,17.244a2.022,2.022,0,0,1,.819,1.788Z" fill="rgba(255,255,255,0.84)"/>
</svg>
