<svg xmlns="http://www.w3.org/2000/svg" width="24.319" height="24.32" viewBox="0 0 24.319 24.32">
  <path id="_4747497_social_media_facebook_icon" data-name="4747497_social media_facebook_icon" d="M21.325.824H3.851A3.423,3.423,0,0,0,.428,4.247V21.721a3.423,3.423,0,0,0,3.423,3.423H11.8V16.267H8.8V12.8H11.8V10.254A4.549,4.549,0,0,1,13,6.887a4.4,4.4,0,0,1,3.253-1.2,14.182,14.182,0,0,1,2.665.154V8.922H17.093a1.736,1.736,0,0,0-1.351.42,1.881,1.881,0,0,0-.36,1.256V12.8h3.425l-.456,3.463H15.382v8.877h5.943a3.423,3.423,0,0,0,3.423-3.423V4.247A3.423,3.423,0,0,0,21.325.824Z" transform="translate(-0.429 -0.824)" fill="#fff"/>
</svg>
