<svg xmlns="http://www.w3.org/2000/svg" width="20.687" height="24" viewBox="0 0 20.687 24">
  <path id="Caminho_4008" data-name="Caminho 4008" d="M20.7,8h4a4.945,4.945,0,0,1,.1.53,5.615,5.615,0,0,0,5.555,5.124v3.773a1.661,1.661,0,0,1-.58.08,20.3,20.3,0,0,1-2.762-.5,18.565,18.565,0,0,1-2.282-1.061v6.6a16.144,16.144,0,0,1-.16,2.472,8.067,8.067,0,0,1-4.684,6.325A17.275,17.275,0,0,1,17.627,32H16.235a1.341,1.341,0,0,0-.18-.07,7.146,7.146,0,0,1-6.005-5.254,13.672,13.672,0,0,1-.38-1.822V23.683c.11-.55.19-1.1.35-1.641a7.6,7.6,0,0,1,6.626-5.3c.45-.07.9-.09,1.381-.13V20.32c0,.29-.15.33-.39.4a15.472,15.472,0,0,0-2.252.7A2.922,2.922,0,0,0,13.493,24.2a3.483,3.483,0,0,0,1.922,3.333,3.313,3.313,0,0,0,3.693-.14,3.5,3.5,0,0,0,1.441-2.452,21.618,21.618,0,0,0,.15-3V8.6A3.01,3.01,0,0,0,20.7,8Z" transform="translate(-9.67 -8)" fill="#f4f4f4"/>
</svg>
