<svg xmlns="http://www.w3.org/2000/svg" width="23.999" height="16.864" viewBox="0 0 23.999 16.864">
  <path id="f5df9939c5cf12c202d39be6866af88f" d="M24.985,10.2a9.267,9.267,0,0,0-.992-4.5,3.183,3.183,0,0,0-1.875-1.09,85.428,85.428,0,0,0-9.125-.338A85.519,85.519,0,0,0,3.9,4.6,3.129,3.129,0,0,0,2.309,5.4c-.981.9-1.09,2.453-1.2,3.761a52.643,52.643,0,0,0,0,7.064,10.411,10.411,0,0,0,.327,2.18,3.423,3.423,0,0,0,.774,1.483,3.118,3.118,0,0,0,1.624.85,49.254,49.254,0,0,0,7.086.36c3.816.055,7.162,0,11.12-.305a3.14,3.14,0,0,0,1.668-.85,2.715,2.715,0,0,0,.665-1.09,11.534,11.534,0,0,0,.567-3.707C24.985,14.541,24.985,10.856,24.985,10.2Zm-14.456,5.6V9.057l6.454,3.39C15.173,13.45,12.786,14.584,10.529,15.805Z" transform="translate(-0.991 -4.258)" fill="#fff"/>
</svg>
