<svg xmlns="http://www.w3.org/2000/svg" width="40.83" height="40.83" viewBox="0 0 40.83 40.83">
  <path id="_8665788_music_sound_icon" data-name="8665788_music_sound_icon" d="M40.758,29.275c0,3.523-3.427,6.38-7.584,6.38S25.59,32.8,25.59,29.346c0-3.523,3.427-6.308,7.584-6.308a8.955,8.955,0,0,1,2.553.391V11.81L15.311,17.863v16.6c-.072,3.517-3.429,6.372-7.727,6.372S0,37.975,0,34.45s3.427-6.308,7.584-6.308a8.945,8.945,0,0,1,2.552.391V10.088a2.715,2.715,0,0,1,1.787-2.434L37.369.119A4.873,4.873,0,0,1,38.278,0,2.555,2.555,0,0,1,40.83,2.551Z" fill="rgba(255,255,255,0.84)"/>
</svg>
