<svg id="_icons" xmlns="http://www.w3.org/2000/svg" width="17.143" height="17.143" viewBox="0 0 17.143 17.143">
  <path id="Caminho_4011" data-name="Caminho 4011" d="M15.51,3.3a4.837,4.837,0,0,0-3.547,1.478L9.8,6.945a.975.975,0,0,0,1.379,1.379l2.167-2.167a3.093,3.093,0,0,1,4.335,0,3.093,3.093,0,0,1,0,4.335L15.51,12.66a.952.952,0,0,0,0,1.379.952.952,0,0,0,1.379,0l2.167-2.167a4.837,4.837,0,0,0,1.478-3.547,4.837,4.837,0,0,0-1.478-3.547A4.837,4.837,0,0,0,15.51,3.3Z" transform="translate(-3.392 -3.3)" fill="#fff"/>
  <path id="Caminho_4012" data-name="Caminho 4012" d="M8.325,11.275A.975.975,0,0,0,6.945,9.9L4.778,11.965a5,5,0,0,0,0,7.094,4.837,4.837,0,0,0,3.547,1.478,4.837,4.837,0,0,0,3.547-1.478l2.167-2.167a.975.975,0,0,0-1.379-1.379l-2.167,2.167a3.092,3.092,0,0,1-4.335,0,3.092,3.092,0,0,1,0-4.335Z" transform="translate(-3.3 -3.393)" fill="#fff"/>
  <path id="Caminho_4013" data-name="Caminho 4013" d="M9.1,14.811a.952.952,0,0,0,1.379,0l4.236-4.236A.975.975,0,1,0,13.332,9.2L9.1,13.432A.951.951,0,0,0,9.1,14.811Z" transform="translate(-3.381 -3.383)" fill="#fff"/>
</svg>
