<svg id="Grupo_4332" data-name="Grupo 4332" xmlns="http://www.w3.org/2000/svg" width="24" height="24" viewBox="0 0 24 24">
  <path id="a0cc64544c7599ce01f15af3e24a6bb5" d="M20.538,3H9.462A6.469,6.469,0,0,0,3,9.462V20.538A6.469,6.469,0,0,0,9.462,27H20.538A6.469,6.469,0,0,0,27,20.538V9.462A6.469,6.469,0,0,0,20.538,3Z" transform="translate(-3 -3)" fill="#fff"/>
  <path id="a0cc64544c7599ce01f15af3e24a6bb5-2" data-name="a0cc64544c7599ce01f15af3e24a6bb5" d="M15.538,9.846a5.538,5.538,0,1,0,5.538,5.538A5.544,5.544,0,0,0,15.538,9.846Zm0,9.231a3.692,3.692,0,1,1,3.692-3.692A3.7,3.7,0,0,1,15.538,19.077Zm7.385-9.692A1.385,1.385,0,1,1,21.538,8a1.385,1.385,0,0,1,1.385,1.386Z" transform="translate(-3.539 -3.384)"/>
</svg>
