<svg id="Componente_1_1" data-name="Componente 1 – 1" xmlns="http://www.w3.org/2000/svg" width="17.763" height="17.763" viewBox="0 0 17.763 17.763">
  <path id="a0cc64544c7599ce01f15af3e24a6bb5" d="M15.981,3h-8.2A4.788,4.788,0,0,0,3,7.782v8.2a4.788,4.788,0,0,0,4.782,4.782h8.2a4.788,4.788,0,0,0,4.782-4.782v-8.2A4.788,4.788,0,0,0,15.981,3Z" transform="translate(-3 -3)" fill="#f83a80"/>
  <path id="a0cc64544c7599ce01f15af3e24a6bb5-2" data-name="a0cc64544c7599ce01f15af3e24a6bb5" d="M14.1,9.366a4.1,4.1,0,1,0,4.1,4.1A4.1,4.1,0,0,0,14.1,9.366Zm0,6.832a2.733,2.733,0,1,1,2.733-2.733A2.736,2.736,0,0,1,14.1,16.2Zm5.466-7.173A1.025,1.025,0,1,1,18.54,8a1.025,1.025,0,0,1,1.025,1.025Z" transform="translate(-5.218 -4.583)" fill="#f2f2f2"/>
</svg>
