<svg xmlns="http://www.w3.org/2000/svg" width="19.904" height="20" viewBox="0 0 19.904 20">
  <path id="Caminho_4020" data-name="Caminho 4020" d="M338.853,340.766a9.913,9.913,0,0,0-15.6,11.958l-1.406,5.136,5.254-1.378a9.9,9.9,0,0,0,4.736,1.206h0a9.915,9.915,0,0,0,7.01-16.922m-7.01,15.248h0a8.225,8.225,0,0,1-4.193-1.148l-.3-.178-3.118.818.832-3.04-.2-.312a8.237,8.237,0,1,1,6.978,3.86m4.518-6.169c-.248-.124-1.465-.723-1.692-.806s-.392-.124-.557.124-.64.806-.784.971-.289.186-.536.062a6.763,6.763,0,0,1-1.991-1.229,7.463,7.463,0,0,1-1.378-1.715c-.144-.248-.015-.382.109-.505s.248-.289.371-.434a1.692,1.692,0,0,0,.248-.413.456.456,0,0,0-.021-.434c-.062-.124-.557-1.343-.763-1.839s-.405-.417-.557-.425-.31-.009-.475-.009a.91.91,0,0,0-.66.31,2.777,2.777,0,0,0-.867,2.066,4.817,4.817,0,0,0,1.011,2.562,11.039,11.039,0,0,0,4.23,3.739,14.218,14.218,0,0,0,1.412.522,3.393,3.393,0,0,0,1.56.1,2.55,2.55,0,0,0,1.672-1.177,2.071,2.071,0,0,0,.144-1.178c-.062-.1-.227-.165-.475-.289" transform="translate(-321.849 -337.86)" fill="#fff" fill-rule="evenodd"/>
</svg>
