<svg xmlns="http://www.w3.org/2000/svg" width="18" height="18" viewBox="0 0 18 18">
  <path id="_059bbfa198189d94d5fb7d8452ed803a" data-name="059bbfa198189d94d5fb7d8452ed803a" d="M9,0a9,9,0,1,0,9,9A9.011,9.011,0,0,0,9,0Zm4.129,12.991a.561.561,0,0,1-.783.137c-2.109-1.483-5.618-1.565-7.988-1.013a.563.563,0,1,1-.254-1.1c2.6-.6,6.5-.493,8.888,1.189A.563.563,0,0,1,13.129,12.991Zm1.1-2.195a.563.563,0,0,1-.785.128C10.995,9.169,7.989,8.732,3.977,9.551a.563.563,0,0,1-.226-1.1c4.339-.885,7.626-.39,10.347,1.562a.565.565,0,0,1,.129.786Zm1.109-2.948a.563.563,0,0,1-.782.15c-3.1-2.1-7.816-2.115-10.869-1.035A.563.563,0,1,1,3.311,5.9c3.32-1.173,8.465-1.149,11.877,1.166A.565.565,0,0,1,15.336,7.849Z" fill="#f83a80"/>
</svg>
