<svg xmlns="http://www.w3.org/2000/svg" width="17.143" height="12.857" viewBox="0 0 17.143 12.857">
  <path id="_8665305_envelope_email_icon" data-name="8665305_envelope_email_icon" d="M8.571,73.643a2.559,2.559,0,0,1-1.579-.549L0,67.656V75.25a1.607,1.607,0,0,0,1.607,1.607H15.536a1.607,1.607,0,0,0,1.607-1.607V67.656L10.152,73.1A2.579,2.579,0,0,1,8.571,73.643ZM.545,66.722l7.1,5.528a1.5,1.5,0,0,0,1.844,0l7.1-5.528a1.513,1.513,0,0,0,.544-1.115A1.607,1.607,0,0,0,15.536,64H1.607A1.607,1.607,0,0,0,0,65.607,1.413,1.413,0,0,0,.545,66.722Z" transform="translate(0 -64)" fill="#fff"/>
</svg>
