<svg id="Componente_8_1" data-name="Componente 8 – 1" xmlns="http://www.w3.org/2000/svg" width="14.727" height="18" viewBox="0 0 14.727 18">
  <path id="Caminho_4019" data-name="Caminho 4019" d="M10.073,13.582a.852.852,0,0,0,1.309,0l4.909-5.155c.409-.409,0-1.064-.655-1.064H12.364s.164-3.764,0-5.727A1.7,1.7,0,0,0,10.727,0,1.7,1.7,0,0,0,9.091,1.636c-.164,1.882,0,5.727,0,5.727H5.818a.715.715,0,0,0-.655,1.145Z" transform="translate(-3.364 0)" fill="#f2f2f2"/>
  <path id="Caminho_4020" data-name="Caminho 4020" d="M16.091,19H4.636A1.641,1.641,0,0,0,3,20.636H3a.773.773,0,0,0,.818.818H16.909a.773.773,0,0,0,.818-.818h0A1.641,1.641,0,0,0,16.091,19Z" transform="translate(-3 -3.455)" fill="#f2f2f2"/>
</svg>
