<svg xmlns="http://www.w3.org/2000/svg" width="24" height="24" viewBox="0 0 24 24">
  <path id="_059bbfa198189d94d5fb7d8452ed803a" data-name="059bbfa198189d94d5fb7d8452ed803a" d="M12,0A12,12,0,1,0,24,12,12.014,12.014,0,0,0,12,0Zm5.505,17.322a.748.748,0,0,1-1.044.183c-2.813-1.977-7.491-2.087-10.65-1.35a.751.751,0,1,1-.339-1.462c3.472-.8,8.663-.657,11.85,1.585A.75.75,0,0,1,17.505,17.322ZM18.969,14.4a.75.75,0,0,1-1.047.171c-3.263-2.342-7.271-2.924-12.62-1.832a.75.75,0,0,1-.3-1.47c5.785-1.181,10.168-.521,13.8,2.082a.753.753,0,0,1,.172,1.048Zm1.479-3.93a.75.75,0,0,1-1.042.2C15.27,7.859,8.984,7.845,4.914,9.285a.751.751,0,1,1-.5-1.416C8.841,6.3,15.7,6.337,20.25,9.423A.753.753,0,0,1,20.448,10.465Z" fill="#fff"/>
</svg>
