<svg xmlns="http://www.w3.org/2000/svg" width="20" height="20" viewBox="0 0 20 20">
  <path id="error_FILL1_wght400_GRAD0_opsz48" d="M90,191a.811.811,0,1,0-.588-.238A.8.8,0,0,0,90,191Zm-.675-3.825h1.5V180.85h-1.5ZM90.007,196a9.679,9.679,0,0,1-3.888-.788,10.1,10.1,0,0,1-5.332-5.334,10.009,10.009,0,0,1,0-7.783,10.006,10.006,0,0,1,2.15-3.171,10.264,10.264,0,0,1,3.184-2.137,10.009,10.009,0,0,1,7.783,0,9.995,9.995,0,0,1,5.309,5.313,10,10,0,0,1,0,7.781,10.213,10.213,0,0,1-2.138,3.177,10.1,10.1,0,0,1-3.175,2.15A9.673,9.673,0,0,1,90.007,196Z" transform="translate(-80 -176)" fill="#f04242"/>
</svg>
