<svg xmlns="http://www.w3.org/2000/svg" width="16" height="16" viewBox="0 0 16 16">
  <path id="_8665788_music_sound_icon" data-name="8665788_music_sound_icon" d="M15.972,11.472A2.775,2.775,0,0,1,13,13.972,2.774,2.774,0,0,1,10.028,11.5,2.754,2.754,0,0,1,13,9.028a3.509,3.509,0,0,1,1,.153V4.628L6,7v6.5A2.812,2.812,0,0,1,2.972,16,2.739,2.739,0,0,1,0,13.5a2.754,2.754,0,0,1,2.972-2.472,3.505,3.505,0,0,1,1,.153V3.953A1.064,1.064,0,0,1,4.672,3L14.644.047A1.909,1.909,0,0,1,15,0a1,1,0,0,1,1,1Z" fill="#211e1e"/>
</svg>
