<svg xmlns="http://www.w3.org/2000/svg" width="18" height="18" viewBox="0 0 18 18">
  <path id="_4747497_social_media_facebook_icon" data-name="4747497_social media_facebook_icon" d="M15.895.824H2.962A2.533,2.533,0,0,0,.428,3.357V16.29a2.533,2.533,0,0,0,2.533,2.533H8.848v-6.57H6.622V9.691H8.848V7.8a3.367,3.367,0,0,1,.888-2.492,3.253,3.253,0,0,1,2.407-.889,10.5,10.5,0,0,1,1.972.114V6.818H12.763a1.285,1.285,0,0,0-1,.31,1.392,1.392,0,0,0-.267.929V9.691H14.03l-.337,2.563H11.5v6.57h4.4a2.533,2.533,0,0,0,2.533-2.533V3.357A2.533,2.533,0,0,0,15.895.824Z" transform="translate(-0.428 -0.824)" fill="#f83a80"/>
</svg>
