<svg xmlns="http://www.w3.org/2000/svg" width="42.364" height="40.468" viewBox="0 0 42.364 40.468">
  <path id="_8665872_star_favorite_icon_1_" data-name="8665872_star_favorite_icon (1)" d="M43.455,1.408l5.171,10.465L60.2,13.555a2.528,2.528,0,0,1,1.4,4.315l-8.37,8.07,1.98,11.5A2.533,2.533,0,0,1,51.535,40.1L41.186,34.746,30.84,40.176a2.533,2.533,0,0,1-3.675-2.664l1.98-11.5-8.372-8.141a2.529,2.529,0,0,1,1.4-4.315l11.571-1.683L38.918,1.41A2.532,2.532,0,0,1,43.455,1.408Z" transform="translate(-20.005 -0.001)" fill="rgba(255,255,255,0.84)"/>
</svg>
