<svg xmlns="http://www.w3.org/2000/svg" width="14.988" height="13.323" viewBox="0 0 14.988 13.323">
  <path id="_8665531_house_icon" data-name="8665531_house_icon" d="M14.984,6.649a.841.841,0,0,1-.833.835h-.833l.018,4.166a1.871,1.871,0,0,1-.013.211v.422a1.041,1.041,0,0,1-1.041,1.041h-.416c-.029,0-.057-.023-.086,0-.036-.021-.073,0-.109,0H10.2A1.041,1.041,0,0,1,9.16,12.283V9.993a.832.832,0,0,0-.833-.833H6.662a.832.832,0,0,0-.833.833v2.29a1.041,1.041,0,0,1-1.041,1.041H3.333c-.039,0-.078,0-.117-.005s-.062.005-.094.005H2.706a1.041,1.041,0,0,1-1.041-1.041V9.368c0-.023,0-.049,0-.073V7.484H.834A.825.825,0,0,1,0,6.649a.845.845,0,0,1,.26-.625L6.932.209A.75.75,0,0,1,7.5,0a.875.875,0,0,1,.549.183L14.7,6.024a.707.707,0,0,1,.286.625Z" fill="#373434"/>
</svg>
