<svg xmlns="http://www.w3.org/2000/svg" width="45.633" height="56.167" viewBox="0 0 45.633 56.167">
  <g id="Grupo_2027" data-name="Grupo 2027" transform="translate(-1098.444 -458.047)">
    <path id="Caminho_3919" data-name="Caminho 3919" d="M1190.808,522.857a1.938,1.938,0,0,1,.117.755c.005.1.01.2.016.3.009.2.019.407.042.607s.022.389.023.584c0,.788.012,1.58.089,2.363a9.56,9.56,0,0,1-.058,2.008,7.567,7.567,0,0,0,.067,1.97,19.09,19.09,0,0,1,.1,2.221.906.906,0,0,1-.036.187c-.617.117-1.225.249-1.84.344-.884.137-1.773.242-2.658.369-.512.074-1.022.162-1.531.252-.265.047-.278.068-.265.317.039.694.092,1.388.122,2.082.02.458.015.917.016,1.376,0,.813,0,1.625,0,2.437.007,1.742.179,3.479.038,5.225a22.017,22.017,0,0,0,.028,2.683c.083,1.954.188,3.907.285,5.86.023.471.056.941.078,1.412.014.3-.056.385-.356.384-.483,0-.967-.005-1.446-.049-1.008-.091-2.013-.213-3.02-.313-.269-.027-.542-.013-.811-.037-.644-.057-1.287-.128-1.932-.19-.433-.042-.869-.072-1.3-.12a2.59,2.59,0,0,1-.478-.115.52.52,0,0,1-.39-.546c-.04-.846-.135-1.689-.182-2.535-.031-.54-.008-1.082-.024-1.624-.034-1.127-.08-2.254-.118-3.381-.018-.553-.045-1.106-.042-1.659.009-1.522-.151-3.034-.254-4.55-.033-.482-.055-.964-.085-1.447-.045-.729-.088-1.457-.143-2.185-.022-.291-.075-.58-.12-.914-.378.077-.743.141-1.1.227-.663.157-1.323.326-1.985.49-.506.125-.591.121-.917-.042-.047-.668-.116-1.335-.182-2-.012-.245-.025-.486-.03-.743.082-2.233.032-4.481.122-6.729q.011-.281.026-.562c.01-.188.021-.376.035-.562a1.172,1.172,0,0,1,.456.135,2.078,2.078,0,0,1,.384.269c.481.412.871.97,1.589.837a4.913,4.913,0,0,0,.616-.156c.624-.193,1.249-.384,1.875-.567,1.085-.317,2.176-.611,3.269-.894,1.187-.308,2.332-.742,3.487-1.145.332-.116.674-.207,1.008-.316a4.7,4.7,0,0,0,.762-.272,12.761,12.761,0,0,1,2.281-.845c.719-.223,1.428-.482,2.147-.7l.261-.079.262-.078a2.185,2.185,0,0,1,.236-.082c.08-.023.161-.043.244-.06.344-.084.672-.084.995-.159C1190.66,522.878,1190.735,522.868,1190.808,522.857Z" transform="translate(-47.13 -42.376)" fill="#fff"/>
    <path id="Caminho_3920" data-name="Caminho 3920" d="M1131.614,540.163c.328,1.585,1.852,1.923,3.037,2.77a.635.635,0,0,1,.084.423c-.677,2.2-2.963,3.641-2.687,6.071.01.18.023.358.034.536s.027.352.038.529c.055.905.088,1.812.133,2.718.012.247.044.494.046.74a1.391,1.391,0,0,0,1.972,1.182,1.5,1.5,0,0,1,.226-.1.381.381,0,0,0,.262-.3,8.178,8.178,0,0,0,.2-1.467c.051-1.345-.1-2.681-.163-4.021-.021-.435-.047-.87-.073-1.3a3.921,3.921,0,0,1,0-.665c.35-1.544,1.451-2.729,1.958-4.253.17-.677.932-1.862.085-2.2s-2.2-.169-2.371-1.27a.632.632,0,0,1,.085-.423,8.178,8.178,0,0,0,3.262-1.987c.132-.122.261-.248.382-.381.1-.137.2-.282.3-.432s.207-.3.314-.456c.493-.779,1.433-1.615,2.374-1.249a.522.522,0,0,1,.209.261,3.77,3.77,0,0,1,.187,1.607c0,.188-.01.369-.017.534s-.012.335-.018.5-.012.331-.014.495q0,.276-.014.552c-.059,1.655-.254,3.306-.226,4.927-.005.226,0,.434-.005.64s0,.412,0,.619,0,.412,0,.618c0,.106,0,.211,0,.316.064.976.1,1.995.069,2.966q0,.153.009.306c.023.713.066,1.423.1,2.124q.007.163.012.326c.005.181.009.362.009.542-.038,1.121.028,2.238.04,3.363q-.006.209-.025.418a10.3,10.3,0,0,1-.534,2.587c-.067.183-.142.364-.223.543q-.06.134-.125.267a4.949,4.949,0,0,1-1.737,1.884c-.086.048-.174.093-.263.138a13.452,13.452,0,0,1-2.215.833,6.62,6.62,0,0,1-1.326.14c-.164.013-.331-.018-.494,0a5.381,5.381,0,0,1-3.528-.914c-.1-.061-.193-.124-.289-.189a6.951,6.951,0,0,1-2.16-2.513q-.067-.12-.128-.245t-.115-.253a8.546,8.546,0,0,1-.5-2.015c-.15-.939-.233-1.884-.3-2.83-.033-.473-.062-.946-.048-1.443.176-2.1,1.784-3.711,2.207-5.827a.647.647,0,0,0-.169-.423c-1.016-.847-2.709-1.016-2.659-2.63-.02-.244-.026-.492-.048-.738a.545.545,0,0,1,.381-.6c.207-.084.416-.165.628-.236q.616-.208,1.233-.413l.248-.082c.147-.051.3-.108.449-.161a7.868,7.868,0,0,1,1.679-.531A.877.877,0,0,1,1131.614,540.163Z" transform="translate(-18.526 -50.008)" fill="#fff"/>
    <path id="Caminho_3921" data-name="Caminho 3921" d="M1123.592,500.3c-.134.085-.238.161-.352.222-.809.432-1.568.953-2.414,1.317-.335.144-.652.327-.982.485-.267.128-.284.134-.466-.089a3.084,3.084,0,0,0-1.713-1.117,4.273,4.273,0,0,0-2.672.009,3.725,3.725,0,0,0-1.4.991,3.893,3.893,0,0,0-1.007,2.4,8.012,8.012,0,0,0,.028,2.254,3.161,3.161,0,0,0,1.031,1.808,2.206,2.206,0,0,1,.284.264,1.886,1.886,0,0,0,1.113.64c.449.088.906.142,1.362.188a1.4,1.4,0,0,0,.488-.064,3.507,3.507,0,0,0,1.873-1.192,1.682,1.682,0,0,0,.379-.828c-.8-.015-1.584.215-2.418.152,0-.206-.007-.413,0-.62.033-.824.07-1.647.1-2.471.014-.318.029-.635.038-.953.008-.278.053-.349.316-.356,1.66-.042,3.319-.078,4.979-.117.518-.012,1.036-.027,1.555-.04.366-.009.457.061.426.425a4.4,4.4,0,0,0-.088,1.066q-.024.267-.057.532a7.153,7.153,0,0,1-.355,1.567c-.149.408-.217.845-.362,1.255-.156.442-.352.872-.544,1.3-.144.322-.315.632-.464.953a3.8,3.8,0,0,1-1.051,1.312c-.244.2-.47.429-.711.637a9.36,9.36,0,0,1-1.653,1.147q-.146.079-.295.153a3,3,0,0,1-.881.36l-.264.092c-.175.062-.349.126-.532.186a3.888,3.888,0,0,1-.539.122c-.106.022-.212.042-.318.061a10.28,10.28,0,0,1-2.879.1,9.89,9.89,0,0,1-1.51-.358c-.375-.1-.74-.236-1.111-.351a4.264,4.264,0,0,1-1.449-.781,5.642,5.642,0,0,1-1.161-1.224,6.151,6.151,0,0,1-.6-1.12,14.91,14.91,0,0,1-.644-1.865,10.859,10.859,0,0,1-.3-3.081,16.676,16.676,0,0,1,.2-1.788,22.253,22.253,0,0,1,.5-2.237,6.455,6.455,0,0,1,1.189-2.346c.2-.261.409-.516.615-.772l.155-.192a5.552,5.552,0,0,1,2.734-1.849q.163-.06.328-.112a8,8,0,0,1,2.056-.367c.505-.024,1.009-.086,1.512-.131a6.143,6.143,0,0,1,2.84.407c.449.177.906.34,1.34.547a8.754,8.754,0,0,1,1.52.888,9.107,9.107,0,0,1,1.776,1.756A2.384,2.384,0,0,1,1123.592,500.3Z" transform="translate(-5.183 -24.71)" fill="#fff"/>
    <path id="Caminho_3922" data-name="Caminho 3922" d="M1127.845,461.353c.56-.041,1.152-.139,1.7-.156l.317-.03c.316-.03.633-.059.95-.084.405-.032.416,0,.576.361.283.647.594,1.281.865,1.932.425,1.021.823,2.053,1.239,3.078a4.333,4.333,0,0,0,.438.835,1.186,1.186,0,0,0,.011-.16c-.08-1.375-.077-2.754-.244-4.123a5.073,5.073,0,0,1-.006-.705c.006-.294.017-.589.031-.883.008-.174.026-.347.04-.528.307-.057.582-.121.86-.157.607-.079,1.217-.136,1.823-.219a.378.378,0,0,1,.474.253c.072.2.133.4.206.6.065.175.133.35.212.52.3.651.586,1.312.918,1.947.5.96,1.038,1.9,1.56,2.849.022.039.052.074.122.172,0-.18,0-.3,0-.417q-.035-.812-.074-1.623c-.009-.188-.022-.376-.031-.564-.028-.564-.052-1.128-.084-1.691-.021-.364-.062-.727-.073-1.091-.013-.4,0-.795,0-1.224a2.821,2.821,0,0,1,.427-.084c.46-.017.918-.052,1.375-.1q.228-.024.456-.051a5.554,5.554,0,0,1,1.531-.1,1.446,1.446,0,0,1,.33.086c.271.06.375.216.323.425a7.925,7.925,0,0,0,.072,3.4c.053.181.11.36.167.539q.073.223.13.45c.039.152.072.305.1.46a11.205,11.205,0,0,1,.072,3.395q-.044.2-.1.4a5.27,5.27,0,0,1-1.538,2.416,4.283,4.283,0,0,1-.373.311,4.174,4.174,0,0,1-.412.269c-.144.107-.294.209-.449.3a5.713,5.713,0,0,1-1,.489,4.89,4.89,0,0,1-.721.03.664.664,0,0,1-.724-.424c-.272-.676-.591-1.333-.871-2.006-.538-1.291-1.063-2.587-1.593-3.881l-.08.012a.667.667,0,0,0-.041.173c.024.8.049,1.6.081,2.4.026.659.056,1.318.1,1.976.021.352.066.7.1,1.053.034.3,0,.369-.3.384-.552.026-1.105.029-1.658.034-.377,0-.753-.006-1.13-.008a.532.532,0,0,1-.538-.4c-.242-.586-.541-1.15-.823-1.719-.177-.358-.394-.7-.546-1.067a25.229,25.229,0,0,0-1.385-2.659,12.713,12.713,0,0,1-.724-1.449,7.759,7.759,0,0,0-.639-1.185l-.141-.228c-.477-.722-.806-1.511-1.227-2.253A1.474,1.474,0,0,1,1127.845,461.353Z" transform="translate(-19.224 -1.2)" fill="#fff"/>
    <path id="Caminho_3923" data-name="Caminho 3923" d="M1177.056,469.343c.069-.275.151-.551.235-.829.042-.139.084-.278.126-.418a8.993,8.993,0,0,0,.256-4.341q-.055-.24-.131-.478c-.958-1.6-1.376-4.529,1.04-5.069a3.4,3.4,0,0,1,.463-.105,12.325,12.325,0,0,1,2.428.031c.162.007.324.011.484.01.316-.006.641,0,.966-.005.163,0,.326.046.494.038,1,0,1.37,0,2.467.048.249.017.475-.054.522.052.07.157-.087.406-.09,1.218,0,.124-.012.454-.024.574a16.95,16.95,0,0,0-.2,1.761c0,.288-.546.141-.837.186a1.777,1.777,0,0,1-.457.009,2.547,2.547,0,0,1-.509-.073c-.937-.29-2.535-1.206-3.2-.276a1.487,1.487,0,0,0-.223.519.614.614,0,0,0,.052.523c.1.156.209.156.366.209.941.157,1.881-.052,2.843.013.142.007.284.019.425.038l.378-.034.379-.038q.38-.041.76-.093c-.005,1.485-.114,2.91-.169,4.354a3.887,3.887,0,0,1-.995.052l-1.059-.024-.353-.008a6.3,6.3,0,0,1-1.958-.444,1.849,1.849,0,0,0-.462-.051,1.107,1.107,0,0,0-1.043.884.831.831,0,0,0,.17.414.786.786,0,0,0,.512.235c.138.037.281.065.41.094.154.032.312.058.471.08.479.066.98.094,1.486.123.125,0,.248,0,.371-.008.369-.022.739-.07,1.109-.075.421-.007.843.038,1.263.059a36.575,36.575,0,0,1-.1,4.178c-.449,0-.9.009-1.358,0-.375-.01-.75-.049-1.126-.066-.6-.027-1.2-.051-1.8-.068-.209-.006-.421.037-.628.019a2.273,2.273,0,0,1-.589-.115q-.2-.129-.405-.272t-.4-.3a6.271,6.271,0,0,1-2.171-2.15A1.929,1.929,0,0,0,1177.056,469.343Z" transform="translate(-51.225)" fill="#fff"/>
    <path id="Caminho_3924" data-name="Caminho 3924" d="M1099.478,567.341c.817-.773,2.933-1.535,2-2.636-1.016-1.1-2.2-2.54-.734-3.754a5.422,5.422,0,0,1,.49-.406,3.027,3.027,0,0,1,1.875-.615c.285,0,.567.008.844.036.093.01.185.022.277.038a2.712,2.712,0,0,1,1.1.389,4.261,4.261,0,0,1,.475.346c1,.916,2.359,1.086,3.46,1.678,1.609.847-.339,2.625-.677,3.81-.169.847-.762,1.524-.7,2.39,0,.206.013.406.022.606a14.861,14.861,0,0,1-.241,3.269,7.032,7.032,0,0,1-.509,1.384c-.152.369-.32.733-.5,1.089a3.691,3.691,0,0,1-1.388,1.561,1.225,1.225,0,0,0-.152.089,2.411,2.411,0,0,1-1.606.406,3.856,3.856,0,0,1-1.308-.262,2.264,2.264,0,0,1-.655-.336,4.989,4.989,0,0,1-1.194-1.193,10.638,10.638,0,0,1-1.308-2.332,13.512,13.512,0,0,1-.439-1.96c-.07-.4-.116-.793-.149-1.191a4.5,4.5,0,0,1-.013-.6,2.443,2.443,0,0,1,.5-1.207A7.547,7.547,0,0,1,1099.478,567.341Zm5,1.663c.3-1.675,2.418-2.775,2.164-4.553-1.947,1.354-4.656,2.625-5.333,4.972a5.887,5.887,0,0,0,.162,1c.029.113.062.225.1.335.247.634.641,1.488,1.4,1.456a1.1,1.1,0,0,0,.788-.493,3.975,3.975,0,0,0,.626-2.168.767.767,0,0,0,.047-.272C1104.446,569.188,1104.462,569.1,1104.479,569Z" transform="translate(0 -66.617)" fill="#fff"/>
    <path id="Caminho_3925" data-name="Caminho 3925" d="M1159.723,503.513a2.417,2.417,0,0,1-.06-.471,3.025,3.025,0,0,1,.014-.381c.062-.631.295-1.245.39-1.919.051-.188.107-.372.169-.553s.131-.358.209-.531a12.9,12.9,0,0,0,.909-1.313q.143-.232.284-.469c.459-.8.929-1.529,1.415-2.3a2.635,2.635,0,0,1,.344-.408,2.529,2.529,0,0,1,.521-.387,2.58,2.58,0,0,1,.593-.239,2.614,2.614,0,0,1,2.632,1.146,4.437,4.437,0,0,1,.273.435,9.875,9.875,0,0,1,.864,2.444c.074.334.137.669.188,1,.022.181.038.357.045.533a14.534,14.534,0,0,1-.705,5.158q-.053.212-.1.421t-.1.42a3.211,3.211,0,0,1-.2.581,4.969,4.969,0,0,1-.3.543c-.4.59-.99,1.352-1.752,1.1a1.66,1.66,0,0,1-.4-.171c-.137-.147-.346-.095-.451-.251a2.435,2.435,0,0,0-.992-1.029,1.948,1.948,0,0,0-.471-.172c-1.724.208-3.762-.523-3.3-2.6C1159.743,503.888,1159.727,503.7,1159.723,503.513Zm3.523-2.125a2.9,2.9,0,0,0,.3,1.6,2.165,2.165,0,0,0,.262.414c.325.419.952.836,1.475.471a1.452,1.452,0,0,0,.286-.319,8.677,8.677,0,0,0,.665-2.9,4.166,4.166,0,0,0-.014-.477,1.884,1.884,0,0,0-.188-.925,1.384,1.384,0,0,0-.6-.643,1.056,1.056,0,0,0-.9-.016,1.242,1.242,0,0,0-.347.215,2.318,2.318,0,0,0-.627.784c-.052.261-.209.47-.23.716-.037.188-.066.37-.094.536C1163.234,501.019,1163.238,501.2,1163.246,501.388Z" transform="translate(-40.028 -23.805)" fill="#fff"/>
  </g>
</svg>
