<svg xmlns="http://www.w3.org/2000/svg" width="10.831" height="10.86" viewBox="0 0 10.831 10.86">
  <g id="noun-brazil-3919054" transform="translate(-98.668 -27.996)" opacity="0.4">
    <path id="Caminho_3643" data-name="Caminho 3643" d="M104.867,28.207c.07-.019.29,1.057.6,1.2a20.59,20.59,0,0,0,2,.772c.383.1.563-.2.794.129a1.673,1.673,0,0,0,1,.526c.244.055.334.656.092,1.073-.231.4-.751.7-.982,1.152-.213.413.118,1.021-.262,1.78s-.562.931-.942,1a2.339,2.339,0,0,0-1.321.659c-.362.417-.041.845-.29,1.106s-.99,1.281-1.092,1.251a11.622,11.622,0,0,1-1.191-.849c-.1-.2.946-.834.979-.946.1-.335-.336-1.371-.672-1.431-.386-.069-.582.041-.5-.393.07-.356.132-1.074-.131-1.27-.219-.163-.283.065-.532-.185-.186-.186.019-.562-.253-.679-.217-.093-.851-.249-1.034-.524s-.131-.5-.445-.432-.694.366-1.165.2-.968-.536-.838-.981a1.071,1.071,0,0,1,.759-.746c.262-.052.445-.249.445-.707s-.209-.707-.026-.877.484-.236.628-.065.327.223.681.026-.092-.517.458-.668.641-.425.811-.295-.039.51.131.825,1.126-.236,1.322-.092a.384.384,0,0,0,.537,0c.118-.144.288-.563.432-.556Z" transform="translate(0)" fill="#d4d4d4"/>
  </g>
</svg>
