<svg xmlns="http://www.w3.org/2000/svg" width="11" height="11.002" viewBox="0 0 11 11.002">
  <path id="_8541949_globe_world_icon" data-name="8541949_globe_world_icon" d="M7.464,11.372C7.143,9.391,6.384,8,5.5,8S3.86,9.391,3.538,11.372ZM3.372,13.5a13.9,13.9,0,0,0,.073,1.42h4.11a13.9,13.9,0,0,0,.073-1.42,13.9,13.9,0,0,0-.073-1.42H3.445A13.9,13.9,0,0,0,3.372,13.5Zm7.2-2.129a5.513,5.513,0,0,0-3.5-3.141,7.487,7.487,0,0,1,1.109,3.141ZM3.931,8.231a5.509,5.509,0,0,0-3.5,3.141h2.4A7.456,7.456,0,0,1,3.931,8.231Zm6.881,3.851H8.267c.047.466.073.943.073,1.42s-.027.954-.073,1.42h2.542A5.454,5.454,0,0,0,11,13.5a5.549,5.549,0,0,0-.189-1.42ZM2.662,13.5c0-.477.027-.954.073-1.42H.191a5.378,5.378,0,0,0,0,2.839H2.733C2.688,14.455,2.662,13.978,2.662,13.5Zm.876,2.129C3.86,17.611,4.618,19,5.5,19s1.641-1.391,1.963-3.372Zm3.534,3.141a5.518,5.518,0,0,0,3.5-3.141h-2.4A7.487,7.487,0,0,1,7.072,18.772ZM.428,15.631a5.513,5.513,0,0,0,3.5,3.141,7.487,7.487,0,0,1-1.109-3.141H.428Z" transform="translate(0 -8)" fill="#d4d4d4" opacity="0.4"/>
</svg>
