<svg xmlns="http://www.w3.org/2000/svg" width="11.25" height="10" viewBox="0 0 11.25 10">
  <path id="_8665531_house_icon" data-name="8665531_house_icon" d="M11.246,4.99a.631.631,0,0,1-.625.627H10l.014,3.127A1.4,1.4,0,0,1,10,8.9v.316A.781.781,0,0,1,9.219,10H8.906c-.021,0-.043-.018-.064,0-.027-.016-.055,0-.082,0h-1.1a.781.781,0,0,1-.781-.781V7.5a.624.624,0,0,0-.625-.625H5a.624.624,0,0,0-.625.625V9.219A.781.781,0,0,1,3.594,10H2.5c-.029,0-.059,0-.088,0s-.047,0-.07,0H2.031a.781.781,0,0,1-.781-.781V7.031c0-.018,0-.037,0-.055V5.617H.626A.619.619,0,0,1,0,4.99a.635.635,0,0,1,.2-.469L5.2.157A.563.563,0,0,1,5.633,0a.657.657,0,0,1,.412.137l4.986,4.384a.53.53,0,0,1,.215.469Z" fill="#f2f2f2" opacity="0.4"/>
</svg>
