<svg xmlns="http://www.w3.org/2000/svg" xmlns:xlink="http://www.w3.org/1999/xlink" width="719" height="227" viewBox="0 0 719 227">
  <defs>
    <clipPath id="clip-path">
      <rect id="Retângulo_2162" data-name="Retângulo 2162" width="719" height="227" rx="10" transform="translate(39 2761)" fill="#f2f2f2"/>
    </clipPath>
  </defs>
  <g id="Grupo_de_máscara_95" data-name="Grupo de máscara 95" transform="translate(-39 -2761)" clip-path="url(#clip-path)">
    <g id="Grupo_3825" data-name="Grupo 3825" transform="translate(873.672 3230.651) rotate(177)" opacity="0.4">
      <g id="Componente_5_1" data-name="Componente 5 – 1" transform="translate(0 0)">
        <path id="Caminho_3928" data-name="Caminho 3928" d="M1250.855,554.052c-11.3,18.131-22.934,36-36.863,52.2-20.693,24.081-44.33,44.2-72.969,57.709-5.929,2.783-13.1,7.716-10.328,15.413,4.543,9.038,5.124,32.8,20.019,25.128,47.323-26.038,81.744-70.71,128.37-98.023,49.445-32.757,116.767-32.117,161.31,7.787.775.694,50.191,33.257,50.951,33.975,6.169,5.4,9,4.418,14.815.123,14.027-10.361,64.083-35.95,99.57-51.079,11.729-5,4.813-39.2-11.858-34.55-43,12-20.062,7.147-45.309,12.759-22.222,4.938-62.515-2.5-65-2.718-24.5-2.11-49.343-2.568-73.8-5.534-42.415-3.035-84.641-13.6-125.608-23.491C1267.926,540.414,1259.531,537.059,1250.855,554.052Zm148.333,31.419c-101.68-37.091-171.492,66.951-248.939,114.274-5.953,3.008-7.308,2.487-9.586-3.992-1.379-8.449-12.411-21.746-.458-26.316,49.76-23.066,86.758-66.415,114.442-113.544,3.445-6.554,8.344-11.9,16.195-10.31,11.558,1.646,22.737,4.938,34.035,7.677,57.714,16.862,107.241,18.3,166.707,22.548,4.148.3,42.16,6.581,46.3,6.9.784.06,22.279,3.834,78.09-13.941,6-1.176,16.715,20.13,5.369,25.185-34.077,15.189-87.434,42.951-92.414,46.114-11.669,7.41-16.113,3.705-28.336-3.517-14.543-8.593-33.832-22.126-36.582-24.649C1438.595,606.934,1428.234,597.006,1399.188,585.472Z" transform="translate(-1018.331 -442.406)" fill="#e3e3e3"/>
        <g id="Grupo_2039" data-name="Grupo 2039" transform="translate(130.839 115.138)">
          <path id="Caminho_3929" data-name="Caminho 3929" d="M1233.763,556.79" transform="translate(-942.541 -526.159)" fill="#e3e3e3"/>
          <path id="Caminho_3930" data-name="Caminho 3930" d="M1470.855,581c-3.5-1.036-44.333-10.754-44.333-10.754s-33.544-7.725-39.53-8.437-40.158-3.864-48.329-4.262-25.742-3.256-25.742-3.256-21.632-3.66-29.285-5.106c-21.456-3.187-23.509-6.333-30.922,8.949-15.578,22.24-26.514,32.479-41.631,50.236l-37.716,35.19c-10.867,7.428-20.121,13.51-32.748,19.777-1.386.688-3.747,1.646-4.16,3.586.491,18.017,18.056,5.387,24.886.129,4.744-2.718,17.35-12.75,21.127-16.59,0,0,34.888-30.934,35.382-31.494,9.981-8.045,16.658-15.967,25.4-25.4,9.141-9.868,16.368-21.567,27.543-27.154,7.776-3.888,30.231-1.553,39.464-2.526s25.831-.479,30.848-.389,26.05,2.128,31.754,3.37a251.132,251.132,0,0,1,24.452,6.091c9.17,2.9,26.2,11.876,28.953,12.54,2.909.7,49.754,36.86,60.2,33.038,3.493-1.278,83.035-34.735,86.327-37.555.817-.7,12.376-9.891,3.888-9.8C1554.8,571.4,1494.119,590.089,1470.855,581Zm-97.861-16.209a286.461,286.461,0,0,0-35.642-2.852c-19.2-.242-37.54.305-37.782.293-8.359-.488-27.46-.682-31.066,1.263-13.612,7.336-22.782,24.35-31.862,32.1-3.825,2.987-17.086,17.383-32.532,31.291-9.536,8.586-22.483,19.061-24.15,20.72-1.9,1.892-10.691,8.126-18.876,14.138-9.353,6.872-18.8,12.235-19.283,9.924-.784-1.637-2.346-4.1.147-5.324a171.492,171.492,0,0,0,16.742-9.17c7.458-4.792,13.707-8.943,17.691-12.25.06-.048,8.012-6.186,17.41-15.21,15.3-14.686,35.657-35.789,41.206-41.559a125.319,125.319,0,0,0,18.745-26c7.473-12.543,9.694-14.255,23.539-11.487,7.326,1.464,11.352,1.835,19.247,3.756.305.075,9.395,2.074,25.143,4.148,5.887.775,13.327.993,20.738,1.622,13.324,1.128,26.541,2.307,30.384,2.673a250.455,250.455,0,0,1,33.125,6.076c10.409,2.72,51.917,12.211,60.687,16.26,23.321,7.159,52.531,2.254,67.274-1.975,4.025-1.155,31.392-7.341,31.509-7.357,11.95-1.541,3.63,3.951-7.752,6.917-22.2,5.776-66.182,30.183-73.391,28.63-19.753-4.256-50.846-27.127-56.293-30.21-7.067-4-19.663-7.892-23.2-8.895C1389.969,568.121,1373.368,564.853,1372.994,564.793Z" transform="translate(-1136.458 -546.555)" fill="#e3e3e3"/>
        </g>
        <path id="Caminho_3931" data-name="Caminho 3931" d="M1673.826,624.75c-4.764-20.654-5.8-42.433-14.482-61.908-12.376-23.716-42.454-16.383-76.067.332-8.185,4.07-34.247,1.038-34.247,1.038-61.806-6.707-124.617-5.169-185.333-19.819-25.341-3.484-74.316-24.754-95.476-8.269-21.815,21.519-33.461,51.558-55,73.715-48.128,60.3-109.545,47.335-94.135,82.379,7.97,19.642,12.438,40.981,24.087,58.84,36.717,49.341,139.866-78.15,181.087-95.287,52.992-32.176,109.117-19.37,144.266,31.392,3.822,5.157,32.029,34.9,39.727,39.865,6.824,4.4,12.315,5.648,22.222-1.481,0,0,8.969-6.737,9-7.093,8.8-9.778,17.813-19.361,28.381-27.241C1624.908,639.277,1683.5,661.792,1673.826,624.75Zm-26.244,20.89c-41.221,8.06-75.1,30.9-104.236,61.294-1.416,1.212-12.687,11.573-12.687,11.573-9.91,6.761-14.438,5.884-20.558.186-6.348-5.911-27.786-24.224-35.439-35.079-28.462-40.41-87.263-63.162-132.833-42.439-64.068,24.64-103.075,91.172-167.362,114.57-27.989,9.248-35.044-24.766-42.4-44.765-7.03-23.991-21.812-33.49,9.628-43.537,39.428-14.476,71.521-44.45,95.482-79.069,14.468-17.068,26.457-55.437,52.277-53.109a232.993,232.993,0,0,1,25.829,4.211c76.028,21.276,154.759,23.186,232.837,30.423,0,0,28.079,3.582,37.543-1.526,13.319-7.186,28.627-11.8,43.522-15.108,28.774-6.4,30.686,30,34.786,50.909C1667.123,628.973,1680.216,640.689,1647.582,645.64Z" transform="translate(-1045.06 -464.54)" fill="#e3e3e3"/>
        <path id="Caminho_3932" data-name="Caminho 3932" d="M1762.956,677.1c-10.487-40.787-8.707-87.386-34.559-121.99-30.671-33.826-72.374-27.092-111.577-9.745a36.48,36.48,0,0,1-17.356,3.87c-9.212.012-96.565-4.89-144.544-11.22-59.759-3.131-132.662-52.372-184.164-2.424-33.811,39.464-53.722,95.087-106.867,112.927-34.011,17.284-81.9,9.661-60.726,64.137,16.8,38.617,22.411,84.911,53.411,114.992,57.454,46.033,126.565-16.575,171.144-54.946,151.242-142.422,132.115,32.978,214.06,57.371,4.992,1.484,15.174.039,26.047-6.5,39.623-33.625,69.731-83.522,125.027-92.737C1729.169,719.142,1775.248,734.241,1762.956,677.1Zm-4.609,29.387c-6.773,14.734-39.2,14.647-53.423,17.17a3.652,3.652,0,0,1-2.954.661c-64.272,11.217-86.362,48.5-119.708,79.742-3.618,2.837-13.148,12.786-16.174,14.692-12.48,7.868-21.21,9.6-29.067,5.157-37.926-21.465-40.1-42.861-57.388-69.575-39.4-62.045-81.984-46.273-131.375-5.6l.03.012c-6.866,5.8-13.794,12.34-21.058,17.562A3.675,3.675,0,0,1,1325,768.2l.033.009c-11.265,9.607-22.746,19.193-34.678,28l.033,0c-11.965,10.188-24.727,20.037-38.512,27.322l-.021-.03a69.1,69.1,0,0,1-6.382,3.756,85.6,85.6,0,0,1-13.4,5.513c-4.01,1.537-12.83,3.985-12.83,3.985s-32.242,3.826-46.5-3.183c-22.893-12.085-36.6-36.7-43.083-61.507l.054.006a38.973,38.973,0,0,1-3.685-9.951c-4.95-12.178-9.376-24.841-13.677-37.231-4.863-13.1-11.6-27.8-9.281-41.984,4.358-15.617,36.388-20.66,50.038-25.4a3.651,3.651,0,0,1,2.811-1.119c108.2-33.233,83.842-166.416,204.242-133.94,36.492,7.53,72.921,18.5,110.387,21.923,42.546,4.908,123.148,9.084,128.155,9.634s16.179-2.188,21.54-4.594c4.408-1.981,8.877-3.771,13.4-5.309l.015.033a79.578,79.578,0,0,1,21-6.025c19.373-4.067,42.149-3.131,58.717,8.59,20.7,15.551,30.333,42.026,32.814,67.543l-.051-.015a39.109,39.109,0,0,1,2.064,10.412c2.96,12.806,5.333,26.008,7.62,38.922C1758.551,677.268,1762.878,692.852,1758.347,706.488Z" transform="translate(-1082.368 -497.641)" fill="#e3e3e3"/>
        <path id="Caminho_3933" data-name="Caminho 3933" d="M1702.155,642.579c-2.9-15.458-5.86-30.9-8.721-46.369-3.591-23.647-14.447-54.06-42.322-54.06-26.319,0-45.612,8.524-61.417,17.317-5.908,3.286-22.866.9-22.866.9-40.88-4.9-82.226-5.863-123.271-9.454-47.488-3.478-92.707-19.534-139.7-25.724-23.808-3.241-42.173,15.057-53.127,34.8-36.564,58.532-65.891,87.943-131.561,108.791-11.777,5.223-9.191,18.933-5.265,28.7,5.307,14.806,10.676,29.588,15.943,44.408,7.288,22.779,22.785,50.9,50.34,46.686a71.482,71.482,0,0,0,19.307-5.333c67.121-27.382,114.322-108.977,187.612-119.048,59.426-6.866,78.653,40.524,107.606,80.993.461.643,5.995,8.572,10.924,15.386,2.965,4.1,5.71,7.8,7,9.266,4.609,5.241,12.454.533,26.634-8.572.458-.3,14.327-13.405,35.133-29.65,12.4-9.685,25.64-22.536,41.607-32.4,24-14.827,46.647-20.561,70.943-24.2C1710.343,670.566,1704.489,652.839,1702.155,642.579ZM1632.8,686.123c-22.321,11.214-34.6,18.442-50.373,32.6-9.5,8.518-44.181,38.509-47.476,40.009-10.552,4.807-15.548,14.977-26.726-1.487-4.073-6-9.808-14.5-11.052-16.114-19.568-25.308-28.914-48.575-55.871-66.822-105.436-74.355-218.755,160.754-289.39,100.98-16.769-17.2-20.854-42.3-29.681-64.077-25.125-56.951,10.472-31.766,60.815-68.094,17.326-12.453,32.1-27.531,45.2-44.456,23.285-28.6,38.785-79.841,83.875-69.432,45.133,8.575,89.664,20.977,135.5,25.529,39.512,3.454,79.371,3.651,118.694,8.8,0,0,20.424,1.945,27.289-1.61,33.943-17.574,63.453-25.335,83.322-2.2,13.842,19.633,13.908,45.067,19.179,67.962C1711.914,687.912,1688.28,658.253,1632.8,686.123Z" transform="translate(-1057.137 -474.75)" fill="#e3e3e3"/>
        <path id="Caminho_3934" data-name="Caminho 3934" d="M1731.982,656.138c-5.971-28.031-9.138-56.975-18.6-84.031v.021a57.887,57.887,0,0,0-6.68-12.741c-10.361-9.972-19.765-20.929-35.478-21.672-28.486-1.212-58.008,10.72-78.8,14.878-13.39,2.679-18.125,1.574-24.132,1.072-13.9-1.161-56.075-3.238-92.9-6.417-55.772-1.76-108.513-22.668-163.45-27.9-39.617-.192-58.382,39.383-78.228,68.22-12.184,17.215-25.745,33.074-42.52,45.941-47.419,39.195-106.454,19.032-81.077,75,10.329,26.735,18.032,54.815,31.656,80.032l0-.021c18.894,25.167,31.434,29.067,47.069,27.316,58.313-6.036,111.081-71.174,164.578-104.284,38.025-28.953,84.351-29,112.388,11.885.479.7,29.331,43.663,43.789,61.348,8.811,10.774,17.781,20.01,25.428,18.1,4.929-1.233,7.161-.338,13.635-6.869,7.679-7.749,24.512-23.377,42.166-40,14.854-14.973,30.651-28.588,49.248-38.641C1693.089,686.171,1748.191,715.415,1731.982,656.138Zm-102.689,63.715c-19.571,11.831-37.626,29.16-53.6,45.178-9.847,8.736-15.608,16.347-21.292,20.325-20.749,14.527-19.621,13.477-26.3,10.657-4.876-1.221-11.361-9.712-15.65-14.267-25.916-27.516-46.058-104.457-119.751-92.98-71.018,22.049-119.757,99.935-187.1,120.55-66.481,21.369-77.363-69.546-96.625-113.753-13.965-36.561,47.078-23.593,92.468-66.205,17.454-14.776,29.881-33.826,43.121-52.166,14.512-21.426,28.349-47.368,55.374-53.153,10.041-2.505,20.253-1.131,30.222.616,41.149,7.066,81.116,19.924,122.891,23.512,44.02,5.043,118.976,11.328,132.471,10.738,9.682-.425,17.089-6.474,68.124-17.4,23.61-3.624,38.718,4.7,48.861,19.086,10.792,15.308,15.964,37.486,19.768,59.447,3.074,17.739,5.259,35.337,8.793,49.065C1739.072,707.409,1680.849,684.953,1629.293,719.853Z" transform="translate(-1070.276 -485.639)" fill="#e3e3e3"/>
        <path id="Caminho_3935" data-name="Caminho 3935" d="M1635.374,578.25c-1.11-15.033-9.431-27-26.828-23.584-13.791,4.028-27.37,10.059-40.847,17.116-8.593,4.5-23.063-.192-32.6-.958-50.14-6.872-101.33-4.866-151.347-13.659-15.476-2.143-30.734-5.363-45.95-8.778-18.331-1.963-64.631-22.123-77.2-7.357-34.849,54.006-70.016,103.7-131.531,127.76-12.211,9.416,1.158,30.6,4.373,42.906,3.475,14.668,13.584,25.167,30.222,19.044,76.851-36.462,135.188-140.943,230.416-118.41,1.006.236,2.02.5,3.038.763,2.843.967,11.858,4.034,12.534,4.28a91.788,91.788,0,0,1,33.3,20.6c7.3,4.884,29.39,32.35,56.919,49.242,5.435,3.334,10.187,3.026,16.544.126,3.244-1.481,13.944-9.3,13.756-9.511,29.156-26.511,61.449-47.551,102.73-56.523C1646.457,613.94,1636.6,590.907,1635.374,578.25Zm-6.892,41.224c-38.608,8.554-71.868,29.432-100.782,55.847-16.524,10.385-18.9,11.026-31.279,2.514-13.351-9.182-34.783-28.013-61.9-51.121a69.931,69.931,0,0,0-23.754-12.067c-.76-.216-9.416-3.1-12.6-4.109l.018-.087c-.925-.257-1.844-.5-2.762-.736-95.231-24.155-155.4,78.853-231.245,117.563-12.178,4.223-21.387,1.832-25.793-11.041-3.705-10.822-7.506-21.611-10.718-32.6-2.116-7.243-.55-10.4,6.076-13.734,55.1-21.8,93.985-69.016,123.528-119.667,5.929-9.467,13.674-13.372,24.94-11.086,19.31,3.915,38.407,8.7,57.634,12.941,63.117,16.173,128.781,13.585,192.915,21.716,0,0,26.61,6.111,36.621.823a242.227,242.227,0,0,1,38.126-16.622c12.69-2.245,21.4,1.574,23.722,14.979,1.948,11.274,4,22.527,5.429,33.888C1637.6,614.359,1635.551,617.229,1628.482,619.474Z" transform="translate(-1030.392 -453.13)" fill="#e3e3e3"/>
        <path id="Caminho_3936" data-name="Caminho 3936" d="M1783.984,674.094c-9.759-40.293-10.822-90.6-39.024-123.046-24.521-25.158-61.351-30.5-106.059-21.237-20.274,4.2-52.118,12-71.117,12.549-45.189-4.193-108.907-4.3-182.26-26.625l-17.236-3.211c-85.836-20.076-104.825,30.952-147.522,92.666-34.421,46.087-68.968,40.832-112.412,64.23-25.826,16.03-13.713,49.888-5.309,72.775,16.006,38.246,22.429,83.343,55.407,110.919,74.382,55.326,154.92-29.345,210.983-76.3,110.506-98.876,96.1,59.852,181.018,80.963,0,0,18.72,2.682,24.858-.652,24.868-13.5,44.008-38.422,70.77-66.355,41.272-40.066,74.556-29.414,121.155-45.65C1795.27,733.368,1788.662,698.022,1783.984,674.094Zm-10.873,63.644c-12.726,10.125-30.554,11.059-45.878,13.219-82.819,6.414-101.554,68.719-148.084,98.511-10.993,7.036-20.414,4.091-25.655,4.319-64.506-7.147-73.918-132.869-139.217-109.482-51.16,22.976-85.83,71.608-133.931,99.905-34.128,21.124-81.679,36.028-116.429,9.389-36.555-27.325-42.559-76.708-59.594-116.887-5.336-16.4-14.031-35.959-5.177-52.687a13.627,13.627,0,0,1,4.57-6.39c10.966-12.01,28.427-15.751,43.214-20.307,116.737-28.082,87.641-169.445,221.562-141.06l15.384,3.487s.632.171.949.269c73.032,22.788,182.072,28.561,182.263,28.477.392.042,26.023-2.02,34.152-4.615,23.9-7.623,65.717-18.074,90.875-13.827,15.1,2.547,38.917,12.109,49.374,24.41,29.561,34.771,29.9,82.472,40.365,124.839,2.676,17.042,8.171,37.725-3.217,52.842A13.629,13.629,0,0,1,1773.111,737.738Z" transform="translate(-1092.741 -508.085)" fill="#e3e3e3"/>
      </g>
    </g>
  </g>
</svg>
