<svg id="Componente_6_1" data-name="Componente 6 – 1" xmlns="http://www.w3.org/2000/svg" width="906.828" height="473.526" viewBox="0 0 906.828 473.526">
  <path id="Caminho_3928" data-name="Caminho 3928" d="M1287.564,558.007c-14.74,23.642-29.9,46.94-48.068,68.072-26.982,31.4-57.8,57.641-95.148,75.249-7.731,3.629-17.085,10.061-13.467,20.1,5.924,11.786,6.681,42.776,26.1,32.766,61.707-33.952,106.59-92.2,167.388-127.816,64.474-42.713,152.258-41.878,210.339,10.154,1.01.905,65.446,43.365,66.437,44.3,8.043,7.036,11.731,5.76,19.318.16,18.291-13.511,83.561-46.877,129.833-66.6,15.294-6.521,6.275-51.116-15.462-45.051-56.068,15.641-26.159,9.319-59.081,16.637-28.977,6.439-81.517-3.263-84.752-3.544-31.942-2.751-64.341-3.348-96.229-7.216-55.307-3.957-110.368-17.737-163.786-30.631C1309.824,540.223,1298.878,535.848,1287.564,558.007Zm193.418,40.969c-132.585-48.364-223.616,87.3-324.6,149.007-7.762,3.922-9.53,3.243-12.5-5.206-1.8-11.017-16.184-28.356-.6-34.315,64.884-30.077,113.127-86.6,149.226-148.055,4.492-8.547,10.88-15.517,21.117-13.444,15.071,2.146,29.647,6.439,44.379,10.01,75.256,21.987,139.836,23.864,217.376,29.4,5.409.386,54.975,8.582,60.376,9,1.022.078,29.05,5,101.825-18.178,7.82-1.534,21.8,26.249,7,32.84-44.434,19.805-114.008,56.005-120.5,60.131-15.216,9.663-21.011,4.831-36.948-4.586-18.963-11.2-44.115-28.851-47.7-32.141C1532.367,626.961,1518.857,614.017,1480.982,598.976Z" transform="translate(-984.365 -412.427)" fill="#f4f4f4"/>
  <g id="Grupo_2039" data-name="Grupo 2039" transform="translate(170.607 150.133)">
    <path id="Caminho_3929" data-name="Caminho 3929" d="M1233.763,556.79" transform="translate(-854.026 -516.849)" fill="#f4f4f4"/>
    <path id="Caminho_3930" data-name="Caminho 3930" d="M1572.493,591.472c-4.562-1.35-57.808-14.022-57.808-14.022s-43.74-10.072-51.545-11-52.364-5.038-63.018-5.557-33.566-4.246-33.566-4.246-28.207-4.773-38.186-6.658c-27.977-4.156-30.654-8.258-40.321,11.669-20.313,29-34.573,42.35-54.285,65.5l-49.18,45.886c-14.17,9.686-26.237,17.616-42.7,25.788-1.807.9-4.886,2.146-5.425,4.675.64,23.493,23.544,7.025,32.45.168,6.186-3.544,22.623-16.625,27.548-21.632,0,0,45.492-40.337,46.136-41.067,13.015-10.49,21.721-20.82,33.124-33.125,11.919-12.867,21.343-28.122,35.915-35.408,10.139-5.069,39.42-2.025,51.459-3.294s33.683-.625,40.224-.507,33.968,2.775,41.406,4.394a327.456,327.456,0,0,1,31.884,7.942c11.957,3.785,34.163,15.485,37.753,16.352,3.793.917,64.876,48.064,78.492,43.08,4.555-1.666,108.273-45.293,112.565-48.969,1.065-.909,16.137-12.9,5.069-12.785C1681.948,578.949,1602.828,603.32,1572.493,591.472Zm-127.605-21.136a373.535,373.535,0,0,0-46.475-3.719c-25.035-.316-48.95.4-49.266.383-10.9-.636-35.806-.89-40.508,1.647-17.749,9.565-29.706,31.751-41.547,41.851-4.987,3.895-22.28,22.666-42.421,40.8-12.434,11.2-29.316,24.855-31.49,27.017-2.478,2.467-13.94,10.6-24.614,18.436-12.2,8.96-24.512,15.954-25.144,12.941-1.023-2.135-3.06-5.346.191-6.943a223.625,223.625,0,0,0,21.831-11.957c9.725-6.248,17.874-11.661,23.068-15.973.078-.062,10.447-8.067,22.7-19.833,19.946-19.15,46.495-46.667,53.73-54.191a163.411,163.411,0,0,0,24.442-33.9c9.745-16.356,12.64-18.588,30.693-14.978,9.553,1.908,14.8,2.392,25.1,4.9.4.1,12.25,2.7,32.785,5.409,7.676,1.011,17.378,1.3,27.041,2.115,17.374,1.471,34.608,3.009,39.619,3.485a326.58,326.58,0,0,1,43.193,7.922c13.573,3.547,67.7,15.922,79.132,21.2,30.409,9.335,68.5,2.939,87.721-2.576,5.249-1.506,40.934-9.573,41.086-9.592,15.583-2.01,4.734,5.151-10.108,9.019-28.941,7.532-86.3,39.357-95.7,37.332-25.757-5.549-66.3-35.372-73.4-39.392-9.214-5.214-25.64-10.291-30.253-11.6C1467.023,574.676,1445.375,570.414,1444.887,570.336Z" transform="translate(-1136.458 -546.555)" fill="#f4f4f4"/>
  </g>
  <path id="Caminho_3931" data-name="Caminho 3931" d="M1843.172,653.568c-6.212-26.932-7.567-55.33-18.884-80.724-16.138-30.924-55.358-21.362-99.188.433-10.673,5.307-44.657,1.354-44.657,1.354-80.591-8.746-162.493-6.74-241.664-25.843-33.043-4.543-96.9-32.278-124.495-10.783-28.446,28.059-43.631,67.229-71.717,96.12-62.756,78.632-142.841,61.722-122.747,107.418,10.392,25.612,16.219,53.438,31.408,76.724,47.876,64.337,182.377-101.9,236.127-124.249,69.1-41.956,142.283-25.257,188.114,40.934,4.984,6.724,41.765,45.5,51.8,51.982,8.9,5.741,16.058,7.364,28.977-1.932,0,0,11.7-8.785,11.731-9.249,11.477-12.75,23.228-25.246,37.008-35.521C1779.385,672.511,1855.789,701.87,1843.172,653.568Zm-34.221,27.24c-53.75,10.51-97.931,40.294-135.917,79.924-1.846,1.58-16.543,15.091-16.543,15.091-12.922,8.816-18.826,7.673-26.806.242-8.277-7.708-36.232-31.587-46.211-45.742-37.113-52.692-113.786-82.359-173.206-55.338-83.542,32.129-134.4,118.883-218.23,149.393-36.5,12.059-45.7-32.293-55.287-58.37-9.167-31.283-28.442-43.669,12.555-56.77,51.412-18.877,93.259-57.961,124.5-103.1,18.865-22.256,34.5-72.287,68.166-69.251a303.822,303.822,0,0,1,33.679,5.491c99.136,27.743,201.8,30.233,303.606,39.669,0,0,36.614,4.671,48.953-1.99,17.367-9.37,37.328-15.38,56.75-19.7,37.52-8.344,40.013,39.115,45.36,66.382C1834.431,659.074,1851.5,674.353,1808.951,680.808Z" transform="translate(-1023.296 -444.665)" fill="#f4f4f4"/>
  <path id="Caminho_3932" data-name="Caminho 3932" d="M1965.082,726.879c-13.674-53.184-11.353-113.946-45.062-159.068-39.994-44.107-94.372-35.326-145.491-12.707-4.953,2.193-10.615,5.03-22.631,5.046s-125.915-6.377-188.477-14.63c-77.922-4.082-172.984-68.291-240.139-3.161-44.087,51.459-70.051,123.988-139.348,147.251-44.349,22.537-106.789,12.6-79.183,83.632,21.909,50.355,29.222,110.719,69.645,149.944,74.917,60.025,165.034-21.612,223.163-71.647,197.212-185.71,172.271,43,279.122,74.808,6.509,1.936,19.785.051,33.964-8.48,51.666-43.845,90.925-108.909,163.028-120.924C1921.026,781.7,1981.11,801.387,1965.082,726.879Zm-6.01,38.319c-8.832,19.212-51.112,19.1-69.66,22.389a4.761,4.761,0,0,1-3.852.862c-83.807,14.627-112.611,63.237-156.093,103.979-4.718,3.7-17.144,16.672-21.09,19.157-16.274,10.26-27.657,12.523-37.9,6.724-49.453-27.989-52.29-55.888-74.831-90.722-51.377-80.9-106.9-60.337-171.306-7.306l.039.016c-8.953,7.567-17.987,16.09-27.458,22.9a4.792,4.792,0,0,1-2.9,2.47l.043.012c-14.689,12.527-29.659,25.027-45.219,36.512l.043,0c-15.6,13.284-32.243,26.128-50.218,35.626l-.028-.039a103.644,103.644,0,0,1-25.8,12.086c-24.1,9.233-53.617,12.718-77.367,1.046-29.851-15.759-47.72-47.857-56.177-80.2l.071.008a50.809,50.809,0,0,1-4.8-12.976c-6.454-15.879-12.226-32.391-17.834-48.548-6.342-17.082-15.122-36.255-12.1-54.745,5.682-20.363,47.447-26.939,65.246-33.121a4.761,4.761,0,0,1,3.665-1.459c141.092-43.334,109.325-217,266.321-174.651,47.584,9.819,95.085,24.129,143.938,28.586,55.478,6.4,160.578,11.844,167.107,12.563s21.1-2.853,28.086-5.991c5.749-2.583,11.575-4.917,17.476-6.923l.02.043a103.767,103.767,0,0,1,27.38-7.856c25.261-5.3,54.96-4.082,76.564,11.2,26.986,20.278,39.552,54.8,42.787,88.073l-.066-.02a51,51,0,0,1,2.692,13.577c3.86,16.7,6.955,33.913,9.937,50.752C1959.337,727.1,1964.98,747.419,1959.072,765.2Z" transform="translate(-1077.633 -492.875)" fill="#f4f4f4"/>
  <path id="Caminho_3933" data-name="Caminho 3933" d="M1881.952,678.374c-3.778-20.157-7.642-40.294-11.372-60.462-4.683-30.834-18.838-70.492-55.186-70.492-34.319,0-59.475,11.115-80.084,22.58-7.7,4.285-29.816,1.171-29.816,1.171-53.3-6.384-107.218-7.645-160.738-12.328-61.921-4.535-120.885-25.472-182.159-33.542-31.045-4.227-54.991,19.634-69.274,45.379-47.677,76.322-85.918,114.672-171.548,141.857-15.357,6.81-11.985,24.688-6.865,37.418,6.92,19.306,13.921,38.58,20.789,57.906,9.5,29.7,29.71,66.375,65.641,60.876a93.207,93.207,0,0,0,25.175-6.954c87.523-35.7,149.069-142.1,244.635-155.232,77.488-8.952,102.559,52.841,140.312,105.611.6.839,7.817,11.177,14.245,20.063,3.867,5.343,7.446,10.166,9.128,12.082,6.01,6.833,16.239.695,34.729-11.177.6-.386,18.681-17.48,45.811-38.662,16.172-12.629,33.433-29.386,54.254-42.249,31.294-19.333,60.824-26.81,92.506-31.556C1892.63,714.867,1885,691.752,1881.952,678.374Zm-90.43,56.778c-29.1,14.623-45.114,24.048-65.684,42.5-12.382,11.107-57.609,50.214-61.906,52.169-13.76,6.268-20.273,19.529-34.849-1.94-5.311-7.825-12.789-18.912-14.412-21.011-25.515-33-37.7-63.338-72.853-87.132-137.483-96.955-285.245,209.614-377.349,131.672-21.866-22.428-27.193-55.158-38.7-83.553-32.762-74.262,13.655-41.422,79.3-88.791,22.591-16.239,41.859-35.9,58.936-57.968,30.362-37.289,50.573-104.108,109.369-90.535,58.851,11.181,116.916,27.353,176.684,33.289,51.521,4.5,103.5,4.761,154.77,11.478,0,0,26.632,2.536,35.584-2.1,44.259-22.916,82.739-33.035,108.647-2.872,18.049,25.6,18.135,58.765,25.008,88.619C1894.678,737.486,1863.86,698.812,1791.522,735.152Z" transform="translate(-1040.884 -459.534)" fill="#f4f4f4"/>
  <path id="Caminho_3934" data-name="Caminho 3934" d="M1922.849,697.714c-7.786-36.551-11.915-74.293-24.258-109.572v.027a75.48,75.48,0,0,0-8.71-16.613c-13.51-13-25.772-27.291-46.261-28.258-37.144-1.58-75.639,13.979-102.757,19.4-17.46,3.493-23.634,2.053-31.466,1.4-18.127-1.514-73.118-4.223-121.131-8.367-72.724-2.295-141.495-29.558-213.129-36.379-51.658-.25-76.127,51.353-102.005,88.955-15.887,22.447-33.57,43.127-55.443,59.9-61.832,51.108-138.81,24.816-105.72,97.794,13.468,34.861,23.513,71.475,41.277,104.358l0-.027c24.637,32.816,40.988,37.9,61.375,35.619,76.037-7.871,144.843-92.806,214.6-135.98,49.582-37.753,109.989-37.816,146.548,15.5.624.917,38.245,56.934,57.1,79.994,11.49,14.049,23.186,26.092,33.157,23.6,6.427-1.608,9.338-.441,17.78-8.956,10.014-10.1,31.962-30.483,54.983-52.154,19.368-19.524,39.967-37.277,64.217-50.386C1872.135,736.876,1943.985,775.008,1922.849,697.714Zm-133.9,83.081c-25.519,15.427-49.063,38.023-69.894,58.909-12.84,11.392-20.352,21.315-27.763,26.5-27.056,18.943-25.585,17.573-34.3,13.9-6.358-1.592-14.814-12.664-20.406-18.6-33.793-35.88-60.057-136.206-156.149-121.24-92.6,28.75-156.156,130.31-243.968,157.191-86.687,27.864-100.877-90.683-125.993-148.328-18.209-47.673,61.387-30.764,120.573-86.328,22.759-19.267,38.963-44.107,56.228-68.021,18.923-27.938,36.965-61.765,72.2-69.309,13.093-3.266,26.409-1.475,39.408.8,53.656,9.214,105.77,25.979,160.242,30.658,57.4,6.576,155.138,14.771,172.734,14,12.625-.554,22.284-8.441,88.83-22.693,30.786-4.726,50.486,6.127,63.712,24.887,14.073,19.961,20.816,48.879,25.776,77.516,4.008,23.13,6.858,46.077,11.466,63.978C1932.094,764.569,1856.174,735.288,1788.949,780.8Z" transform="translate(-1060.02 -475.394)" fill="#f4f4f4"/>
  <path id="Caminho_3935" data-name="Caminho 3935" d="M1790.8,591.195c-1.448-19.6-12.3-35.2-34.982-30.752-17.983,5.253-35.689,13.117-53.262,22.319-11.2,5.87-30.073-.25-42.5-1.249-65.38-8.96-132.129-6.345-197.348-17.811-20.18-2.794-40.075-6.993-59.916-11.446-23.9-2.56-84.275-28.848-100.666-9.592-45.442,70.421-91.3,135.223-171.509,166.592-15.922,12.277,1.51,39.9,5.7,55.947,4.531,19.126,17.713,32.816,39.407,24.832,100.21-47.545,176.278-183.782,300.449-154.4,1.312.308,2.634.648,3.961,1,3.708,1.261,15.462,5.26,16.344,5.581a119.687,119.687,0,0,1,43.424,26.865c9.523,6.369,38.323,42.183,74.219,64.208,7.087,4.348,13.284,3.945,21.573.164,4.23-1.932,18.182-12.125,17.937-12.4,38.018-34.569,80.127-62,133.955-73.7C1805.246,637.733,1792.4,607.7,1790.8,591.195Zm-8.987,53.754c-50.343,11.154-93.712,38.378-131.414,72.822-21.546,13.542-24.649,14.377-40.786,3.278-17.409-11.973-45.355-36.528-80.716-66.659a91.187,91.187,0,0,0-30.974-15.735c-.992-.281-12.278-4.043-16.433-5.358l.023-.113c-1.206-.336-2.4-.656-3.6-.96-124.176-31.5-202.636,102.82-301.53,153.3-15.88,5.506-27.887,2.388-33.632-14.4-4.832-14.111-9.788-28.18-13.975-42.51-2.759-9.444-.718-13.562,7.922-17.909,71.842-28.43,122.552-89.993,161.074-156.039,7.731-12.344,17.83-17.437,32.52-14.455,25.179,5.1,50.081,11.345,75.151,16.875,82.3,21.089,167.922,17.714,251.551,28.317,0,0,34.7,7.969,47.751,1.073,16.469-8.7,33-16.262,49.715-21.675,16.547-2.927,27.911,2.053,30.932,19.532,2.541,14.7,5.21,29.374,7.079,44.188C1793.691,638.279,1791.026,642.022,1781.808,644.948Z" transform="translate(-1001.932 -428.045)" fill="#f4f4f4"/>
  <path id="Caminho_3936" data-name="Caminho 3936" d="M1994.083,724.552c-12.726-52.54-14.111-118.141-50.885-160.445-31.973-32.8-80-39.767-138.294-27.693-26.436,5.475-67.959,15.653-92.733,16.363-58.925-5.467-142.009-5.612-237.657-34.717l-22.475-4.187c-111.925-26.178-136.686,40.36-192.36,120.831-44.883,60.1-89.93,53.242-146.579,83.753-33.675,20.9-17.881,65.051-6.923,94.894,20.871,49.871,29.246,108.674,72.248,144.632,96.99,72.143,202.007-38.264,275.11-99.5,144.094-128.928,125.3,78.043,236.037,105.572,0,0,24.41,3.5,32.414-.851,32.427-17.6,57.384-50.1,92.28-86.523,53.816-52.243,97.217-38.354,157.979-59.525C2008.8,801.841,2000.183,755.752,1994.083,724.552Zm-14.177,82.988c-16.594,13.2-39.841,14.42-59.822,17.237-107.991,8.363-132.421,89.606-193.094,128.452-14.334,9.175-26.619,5.335-33.453,5.631-84.112-9.319-96.385-173.254-181.53-142.759-66.71,29.96-111.918,93.372-174.639,130.271-44.5,27.544-106.5,46.979-151.817,12.242-47.666-35.63-55.494-100.022-77.707-152.414-6.958-21.39-18.3-46.889-6.751-68.7a17.77,17.77,0,0,1,5.959-8.332c14.3-15.661,37.067-20.539,56.349-26.479,152.219-36.618,114.278-220.946,288.905-183.935l20.059,4.547s.824.222,1.237.351c95.23,29.714,237.411,37.242,237.661,37.133.511.055,33.932-2.634,44.532-6.018,31.161-9.94,85.692-23.568,118.5-18.03,19.684,3.321,50.745,15.79,64.38,31.829,38.546,45.34,38.982,107.538,52.634,162.783,3.489,22.221,10.654,49.192-4.2,68.9A17.769,17.769,0,0,1,1979.905,807.539Z" transform="translate(-1092.741 -508.085)" fill="#f4f4f4"/>
</svg>
