<svg xmlns="http://www.w3.org/2000/svg" width="579.353" height="376.886" viewBox="0 0 579.353 376.886">
  <g id="Grupo_3781" data-name="Grupo 3781" transform="translate(579.352 272.648) rotate(169)" opacity="0.05">
    <path id="Caminho_3971" data-name="Caminho 3971" d="M1223.131,551.066c-8.709,13.969-17.67,27.735-28.4,40.221-15.943,18.553-34.154,34.058-56.219,44.462-4.568,2.145-10.095,5.945-7.957,11.875,3.5,6.964,3.948,25.275,15.424,19.36,36.46-20.061,62.98-54.478,98.9-75.522,38.1-25.238,89.963-24.744,124.281,6,.6.535,38.669,25.623,39.255,26.176,4.752,4.157,6.931,3.4,11.414.095,10.807-7.983,49.373-27.7,76.714-39.354,9.037-3.853,3.708-30.2-9.135-26.619-33.129,9.242-15.457,5.506-34.909,9.83-17.121,3.8-48.165-1.928-50.077-2.094-18.873-1.625-38.017-1.978-56.858-4.263-32.679-2.338-65.212-10.48-96.775-18.1C1236.284,540.558,1229.816,537.973,1223.131,551.066Zm114.284,24.207c-78.34-28.577-132.126,51.582-191.8,88.042-4.586,2.318-5.631,1.916-7.386-3.076-1.063-6.509-9.562-16.754-.353-20.275,38.337-17.771,66.843-51.17,88.172-87.48,2.654-5.05,6.429-9.168,12.477-7.944,8.905,1.268,17.517,3.8,26.222,5.915,44.466,12.991,82.624,14.1,128.439,17.372,3.2.228,32.483,5.071,35.674,5.32.6.046,17.165,2.954,60.165-10.741,4.62-.906,12.878,15.509,4.136,19.4-26.255,11.7-67.363,33.092-71.2,35.529-8.99,5.709-12.415,2.855-21.831-2.709-11.2-6.62-26.066-17.047-28.185-18.991C1367.776,591.808,1359.793,584.16,1337.415,575.273Z" transform="translate(-1043.601 -467.011)" fill="#fff"/>
    <g id="Grupo_3780" data-name="Grupo 3780" transform="translate(101.186 86.745)">
      <path id="Caminho_3972" data-name="Caminho 3972" d="M1233.763,556.79" transform="translate(-1009.391 -533.19)" fill="#fff"/>
      <path id="Caminho_3973" data-name="Caminho 3973" d="M1394.094,573.1c-2.7-.8-34.156-8.285-34.156-8.285s-25.844-5.951-30.456-6.5-30.94-2.977-37.235-3.284-19.833-2.509-19.833-2.509-16.667-2.82-22.563-3.934c-16.531-2.456-18.113-4.879-23.824,6.895-12,17.135-20.428,25.023-32.075,38.7l-29.058,27.112a197.651,197.651,0,0,1-25.231,15.237c-1.068.53-2.887,1.268-3.205,2.762.378,13.881,13.911,4.15,19.173.1,3.655-2.094,13.367-9.823,16.277-12.781,0,0,26.88-23.833,27.26-24.265,7.69-6.2,12.834-12.3,19.572-19.572,7.042-7.6,12.611-16.616,21.221-20.921,5.991-3,23.292-1.2,30.405-1.946s19.9-.369,23.767-.3,20.07,1.64,24.465,2.6a193.48,193.48,0,0,1,18.839,4.693c7.065,2.237,20.186,9.15,22.307,9.662,2.241.542,38.333,28.4,46.378,25.455,2.691-.985,63.974-26.762,66.511-28.934.629-.537,9.535-7.621,3-7.554C1458.767,565.7,1412.018,580.1,1394.094,573.1Zm-75.4-12.489a220.707,220.707,0,0,0-27.46-2.2c-14.792-.187-28.923.235-29.109.226-6.44-.376-21.156-.526-23.935.973-10.487,5.652-17.552,18.761-24.548,24.728-2.947,2.3-13.164,13.392-25.065,24.108-7.347,6.615-17.322,14.686-18.606,15.963-1.464,1.457-8.237,6.261-14.543,10.893-7.206,5.294-14.483,9.426-14.857,7.646-.6-1.261-1.808-3.159.113-4.1a132.135,132.135,0,0,0,12.9-7.065,154.448,154.448,0,0,0,13.63-9.438c.046-.037,6.173-4.766,13.413-11.718,11.785-11.315,27.472-27.574,31.747-32.019a96.547,96.547,0,0,0,14.442-20.031c5.758-9.664,7.469-10.983,18.136-8.85,5.645,1.128,8.746,1.413,14.829,2.894.235.058,7.238,1.6,19.372,3.2,4.535.6,10.268.765,15.977,1.25,10.266.869,20.448,1.778,23.409,2.059a192.961,192.961,0,0,1,25.521,4.681c8.02,2.1,40,9.408,46.756,12.528,17.968,5.516,40.473,1.736,51.831-1.522,3.1-.89,24.186-5.656,24.276-5.668,9.207-1.187,2.8,3.044-5.972,5.329-17.1,4.45-50.99,23.255-56.544,22.058-15.219-3.279-39.174-20.9-43.371-23.275-5.444-3.081-15.15-6.081-17.875-6.853C1331.776,563.171,1318.985,560.653,1318.7,560.606Z" transform="translate(-1136.458 -546.555)" fill="#fff"/>
    </g>
    <path id="Caminho_3974" data-name="Caminho 3974" d="M1545.931,602.985c-3.671-15.913-4.471-32.693-11.158-47.7-9.535-18.272-32.709-12.622-58.606.256-6.306,3.136-26.386.8-26.386.8-47.618-5.168-96.011-3.982-142.79-15.27-19.524-2.684-57.257-19.072-73.56-6.371-16.808,16.579-25.78,39.723-42.375,56.793-37.081,46.461-84.4,36.469-72.526,63.469,6.14,15.133,9.583,31.574,18.558,45.333,28.288,38.015,107.76-60.211,139.519-73.414,40.828-24.79,84.07-14.924,111.15,24.186,2.945,3.973,24.677,26.886,30.608,30.714,5.257,3.392,9.488,4.351,17.121-1.141,0,0,6.911-5.19,6.931-5.465,6.781-7.533,13.724-14.917,21.866-20.988C1508.242,614.178,1553.386,631.525,1545.931,602.985Zm-20.22,16.095c-31.759,6.21-57.864,23.808-80.309,47.224-1.091.934-9.775,8.917-9.775,8.917-7.635,5.209-11.124,4.533-15.839.143-4.891-4.554-21.408-18.664-27.3-27.027-21.929-31.134-67.232-48.663-102.341-32.7-49.362,18.984-79.414,70.243-128.944,88.271-21.564,7.125-27-19.081-32.667-34.489-5.417-18.484-16.805-25.8,7.418-33.543,30.377-11.153,55.1-34.247,73.564-60.919,11.146-13.15,20.384-42.712,40.277-40.918a179.528,179.528,0,0,1,19.9,3.244c58.576,16.392,119.234,17.864,179.389,23.439,0,0,21.634,2.76,28.925-1.176,10.261-5.536,22.056-9.087,33.532-11.64,22.169-4.93,23.642,23.112,26.8,39.223C1540.766,606.239,1550.854,615.266,1525.711,619.08Z" transform="translate(-1061.116 -481.515)" fill="#fff"/>
    <path id="Caminho_3975" data-name="Caminho 3975" d="M1610.3,639.506c-8.08-31.424-6.708-67.327-26.626-93.987-23.631-26.061-55.76-20.873-85.965-7.508a28.1,28.1,0,0,1-13.372,2.981c-7.1.009-74.4-3.768-111.364-8.645-46.041-2.412-102.21-40.35-141.889-1.868-26.049,30.405-41.39,73.26-82.336,87-26.2,13.316-63.1,7.443-46.786,49.415,12.945,29.753,17.266,65.42,41.151,88.6,44.266,35.467,97.513-12.77,131.859-42.333,116.525-109.729,101.788,25.408,164.923,44.2,3.846,1.144,11.691.03,20.068-5.011,30.527-25.906,53.725-64.35,96.327-71.45C1584.273,671.9,1619.774,683.53,1610.3,639.506Zm-3.551,22.641c-5.218,11.352-30.2,11.285-41.159,13.229a2.813,2.813,0,0,1-2.276.509c-49.518,8.642-66.538,37.364-92.23,61.438-2.788,2.186-10.13,9.851-12.461,11.319-9.615,6.062-16.342,7.4-22.395,3.973-29.22-16.538-30.9-33.022-44.215-53.6-30.357-47.8-63.165-35.651-101.218-4.317l.023.009c-5.29,4.471-10.628,9.507-16.224,13.531a2.831,2.831,0,0,1-1.716,1.46l.025.007c-8.679,7.4-17.524,14.788-26.718,21.574l.025,0c-9.219,7.849-19.051,15.438-29.672,21.05l-.016-.023a61.245,61.245,0,0,1-15.242,7.141c-14.238,5.455-31.68,7.515-45.714.618-17.638-9.311-28.2-28.277-33.193-47.388l.042,0a30.022,30.022,0,0,1-2.839-7.667c-3.813-9.382-7.224-19.139-10.538-28.685-3.747-10.093-8.935-21.422-7.151-32.347,3.358-12.032,28.035-15.917,38.552-19.57a2.813,2.813,0,0,1,2.166-.862c83.366-25.6,64.6-128.215,157.359-103.194,28.115,5.8,56.182,14.257,85.048,16.89,32.78,3.782,94.879,7,98.737,7.423s12.465-1.686,16.6-3.54c3.4-1.526,6.839-2.905,10.326-4.091l.011.025a61.311,61.311,0,0,1,16.178-4.642c14.926-3.134,32.474-2.412,45.239,6.618,15.945,11.981,23.37,32.379,25.281,52.039l-.039-.012a30.126,30.126,0,0,1,1.591,8.022c2.281,9.867,4.109,20.038,5.871,29.988C1606.91,639.636,1610.244,651.642,1606.753,662.148Z" transform="translate(-1085.562 -503.205)" fill="#fff"/>
    <path id="Caminho_3976" data-name="Caminho 3976" d="M1566.366,615.546c-2.232-11.91-4.515-23.808-6.719-35.725-2.767-18.219-11.131-41.651-32.607-41.651-20.278,0-35.142,6.567-47.319,13.342-4.552,2.532-17.617.692-17.617.692-31.5-3.772-63.351-4.517-94.974-7.284-36.587-2.679-71.426-15.05-107.631-19.819-18.343-2.5-32.492,11.6-40.932,26.813-28.171,45.1-50.766,67.755-101.361,83.818-9.074,4.024-7.081,14.587-4.056,22.109,4.088,11.407,8.225,22.8,12.283,34.214,5.615,17.55,17.555,39.218,38.785,35.969a55.076,55.076,0,0,0,14.875-4.109c51.714-21.1,88.08-83.961,144.546-91.721,45.785-5.29,60.6,31.222,82.905,62.4.355.5,4.619,6.6,8.417,11.854,2.285,3.157,4.4,6.007,5.393,7.139,3.551,4.038,9.595.41,20.52-6.6.353-.228,11.038-10.328,27.068-22.844,9.555-7.462,19.754-17.363,32.056-24.963,18.491-11.423,35.939-15.841,54.658-18.645C1572.675,637.108,1568.164,623.45,1566.366,615.546Zm-53.432,33.548c-17.2,8.64-26.656,14.209-38.81,25.113-7.316,6.562-34.039,29.67-36.578,30.825-8.13,3.7-11.979,11.539-20.591-1.146-3.138-4.623-7.556-11.174-8.515-12.415-15.076-19.5-22.277-37.424-43.046-51.483-81.234-57.287-168.541,123.853-222.961,77.8-12.92-13.252-16.067-32.591-22.867-49.369-19.358-43.878,8.068-24.474,46.855-52.463a168.644,168.644,0,0,0,34.823-34.251c17.94-22.033,29.882-61.514,64.622-53.494,34.773,6.606,69.081,16.162,104.4,19.669,30.442,2.661,61.152,2.813,91.448,6.782,0,0,15.736,1.5,21.025-1.241,26.151-13.54,48.887-19.519,64.2-1.7,10.665,15.127,10.716,34.722,14.776,52.362C1573.885,650.473,1555.676,627.622,1512.934,649.094Z" transform="translate(-1069.029 -488.205)" fill="#fff"/>
    <path id="Caminho_3977" data-name="Caminho 3977" d="M1587.833,624.738c-4.6-21.6-7.04-43.9-14.333-64.742v.016a44.6,44.6,0,0,0-5.147-9.816c-7.983-7.683-15.228-16.125-27.334-16.7-21.947-.934-44.692,8.26-60.715,11.462-10.317,2.064-13.964,1.213-18.592.826-10.711-.895-43.2-2.5-71.572-4.944-42.97-1.356-83.6-17.465-125.93-21.5-30.523-.148-44.981,30.343-60.271,52.56-9.387,13.263-19.835,25.482-32.759,35.4-36.534,30.2-82.017,14.663-62.466,57.783,7.958,20.6,13.893,42.232,24.389,61.661l0-.016c14.557,19.39,24.218,22.395,36.264,21.046,44.928-4.651,85.582-54.836,126.8-80.346,29.3-22.307,64.989-22.344,86.59,9.157.369.542,22.6,33.64,33.737,47.266,6.789,8.3,13.7,15.417,19.591,13.943,3.8-.95,5.518-.26,10.505-5.292,5.917-5.97,18.885-18.011,32.487-30.816,11.444-11.536,23.615-22.026,37.943-29.771C1557.868,647.877,1600.321,670.408,1587.833,624.738Zm-79.117,49.09c-15.078,9.115-28.989,22.466-41.3,34.807-7.586,6.731-12.025,12.595-16.4,15.659-15.986,11.193-15.117,10.383-20.266,8.211-3.756-.941-8.753-7.482-12.057-10.992-19.967-21.2-35.485-80.479-92.263-71.636-54.716,16.987-92.267,77-144.151,92.878-51.22,16.464-59.6-53.581-74.445-87.641-10.759-28.168,36.271-18.177,71.242-51.008,13.448-11.384,23.022-26.061,33.223-40.191,11.181-16.508,21.841-36.495,42.663-40.952,7.736-1.93,15.6-.872,23.285.475,31.7,5.444,62.5,15.35,94.681,18.115,33.915,3.885,91.665,8.728,102.062,8.273,7.46-.328,13.167-4.988,52.487-13.409,18.191-2.792,29.83,3.62,37.645,14.7,8.315,11.794,12.3,28.881,15.23,45.8,2.368,13.667,4.052,27.225,6.775,37.8C1593.3,664.24,1548.437,646.939,1508.716,673.827Z" transform="translate(-1077.639 -495.34)" fill="#fff"/>
    <path id="Caminho_3978" data-name="Caminho 3978" d="M1518,568.474c-.855-11.582-7.266-20.8-20.67-18.17a173.2,173.2,0,0,0-31.471,13.187c-6.62,3.468-17.769-.148-25.113-.738-38.63-5.294-78.07-3.749-116.605-10.524-11.924-1.651-23.679-4.132-35.4-6.763-14.123-1.513-49.8-17.045-59.48-5.668-26.85,41.609-53.943,79.9-101.338,98.433-9.408,7.254.892,23.575,3.369,33.057,2.677,11.3,10.466,19.39,23.284,14.672,59.21-28.092,104.156-108.59,177.524-91.229.775.182,1.557.383,2.34.588,2.191.745,9.136,3.108,9.657,3.3a70.719,70.719,0,0,1,25.657,15.873c5.627,3.763,22.644,24.924,43.853,37.938,4.187,2.569,7.849,2.331,12.746.1a77.2,77.2,0,0,0,10.6-7.328c22.464-20.425,47.344-36.636,79.149-43.549C1526.534,595.971,1518.943,578.225,1518,568.474Zm-5.31,31.761c-29.746,6.59-55.371,22.676-77.647,43.028-12.731,8-14.564,8.495-24.1,1.937-10.286-7.074-26.8-21.583-47.692-39.387a53.878,53.878,0,0,0-18.3-9.3c-.586-.166-7.254-2.389-9.71-3.166l.014-.067c-.713-.2-1.42-.387-2.128-.567-73.371-18.611-119.73,60.753-178.163,90.577-9.383,3.254-16.478,1.411-19.872-8.506-2.855-8.338-5.783-16.651-8.258-25.118-1.63-5.58-.424-8.013,4.681-10.582,42.449-16.8,72.411-53.173,95.172-92.2,4.568-7.294,10.535-10.3,19.215-8.541,14.878,3.016,29.591,6.7,44.4,9.971,48.629,12.461,99.219,10.466,148.632,16.731,0,0,20.5,4.709,28.214.634a186.627,186.627,0,0,1,29.375-12.807c9.777-1.729,16.491,1.213,18.276,11.541,1.5,8.686,3.078,17.356,4.183,26.109C1519.706,596.294,1518.131,598.505,1512.685,600.235Z" transform="translate(-1051.504 -474.038)" fill="#fff"/>
    <path id="Caminho_3979" data-name="Caminho 3979" d="M1625.31,635.987c-7.519-31.044-8.338-69.805-30.066-94.8-18.892-19.383-47.268-23.5-81.713-16.362-15.62,3.235-40.154,9.249-54.792,9.668-34.816-3.23-83.908-3.316-140.422-20.513l-13.28-2.474c-66.132-15.468-80.763,23.847-113.659,71.394-26.52,35.508-53.136,31.459-86.608,49.486-19.9,12.35-10.565,38.436-4.091,56.069,12.332,29.467,17.28,64.211,42.689,85.458,57.308,42.626,119.358-22.609,162.552-58.788,85.139-76.179,74.037,46.113,139.466,62.378,0,0,14.423,2.066,19.152-.5,19.16-10.4,33.906-29.6,54.525-51.123,31.8-30.869,57.442-22.662,93.344-35.171C1634.006,681.655,1628.914,654.422,1625.31,635.987Zm-8.377,49.034c-9.8,7.8-23.541,8.52-35.347,10.185-63.808,4.942-78.242,52.945-114.092,75.9-8.47,5.421-15.728,3.152-19.766,3.327-49.7-5.506-56.95-102.369-107.26-84.351-39.417,17.7-66.128,55.17-103.188,76.972-26.294,16.275-62.929,27.758-89.7,7.234-28.164-21.053-32.789-59.1-45.915-90.056-4.111-12.638-10.81-27.7-3.989-40.592a10.5,10.5,0,0,1,3.521-4.923c8.449-9.253,21.9-12.136,33.295-15.645,89.94-21.636,67.523-130.549,170.7-108.68l11.852,2.686s.487.131.731.207c56.268,17.557,140.277,22,140.425,21.94.3.032,20.049-1.556,26.313-3.556,18.412-5.873,50.632-13.925,70.015-10.653,11.631,1.962,29.983,9.33,38.04,18.807,22.775,26.789,23.033,63.54,31.1,96.182,2.062,13.13,6.3,29.066-2.479,40.712A10.5,10.5,0,0,1,1616.933,685.021Z" transform="translate(-1092.36 -510.048)" fill="#fff"/>
  </g>
</svg>
