<svg xmlns="http://www.w3.org/2000/svg" xmlns:xlink="http://www.w3.org/1999/xlink" width="1600" height="290" viewBox="0 0 1600 290">
  <defs>
    <clipPath id="clip-path">
      <rect id="Ret칙ngulo_1999" data-name="Ret칙ngulo 1999" width="1600" height="290" transform="translate(0 5744)" fill="#fff"/>
    </clipPath>
  </defs>
  <g id="Grupo_de_m치scara_64" data-name="Grupo de m치scara 64" transform="translate(0 -5744)" clip-path="url(#clip-path)">
    <g id="Grupo_2278" data-name="Grupo 2278" transform="translate(1336.104 6251.363) rotate(169)" opacity="0.05">
      <path id="Caminho_3928" data-name="Caminho 3928" d="M1267.276,555.821c-12.841,20.6-26.052,40.893-41.875,59.3-23.506,27.355-50.357,50.215-82.89,65.555-6.735,3.162-14.884,8.765-11.732,17.509,5.161,10.267,5.82,37.265,22.741,28.545,53.758-29.578,92.858-80.323,145.824-111.35,56.168-37.211,132.643-36.483,183.242,8.846.88.789,57.015,37.779,57.878,38.594,7.007,6.13,10.22,5.018,16.83.139,15.935-11.77,72.8-40.838,113.107-58.024,13.324-5.681,5.467-44.531-13.47-39.247-48.845,13.626-22.789,8.119-51.47,14.493-25.244,5.61-71.015-2.842-73.833-3.087-27.827-2.4-56.052-2.917-83.832-6.286-48.182-3.447-96.149-15.452-142.686-26.685C1286.668,540.328,1277.132,536.517,1267.276,555.821Zm168.5,35.691c-115.5-42.134-194.808,76.053-282.785,129.811-6.762,3.417-8.3,2.825-10.89-4.535-1.567-9.6-14.1-24.7-.52-29.894,56.525-26.2,98.553-75.445,130-128.981,3.913-7.446,9.479-13.518,18.4-11.712,13.13,1.87,25.828,5.609,38.662,8.72,65.561,19.154,121.822,20.79,189.372,25.614,4.712.337,47.893,7.476,52.6,7.843.891.068,25.308,4.355,88.708-15.836,6.813-1.336,18.987,22.867,6.1,28.609-38.71,17.254-99.321,48.791-104.979,52.384-13.255,8.418-18.3,4.209-32.188-3.995-16.52-9.761-38.432-25.135-41.556-28C1480.542,615.892,1468.772,604.615,1435.777,591.513Z" transform="translate(-1003.137 -428.995)" fill="#fff"/>
      <g id="Grupo_2039" data-name="Grupo 2039" transform="translate(148.628 130.792)">
        <path id="Caminho_3929" data-name="Caminho 3929" d="M1233.763,556.79" transform="translate(-902.946 -521.994)" fill="#fff"/>
        <path id="Caminho_3930" data-name="Caminho 3930" d="M1516.32,585.686c-3.974-1.176-50.361-12.216-50.361-12.216s-38.1-8.775-44.9-9.584-45.618-4.389-54.9-4.841-29.242-3.7-29.242-3.7-24.573-4.158-33.267-5.8c-24.373-3.621-26.705-7.194-35.127,10.165-17.7,25.264-30.119,36.895-47.291,57.066l-42.844,39.975c-12.345,8.438-22.857,15.347-37.2,22.466-1.574.782-4.257,1.87-4.726,4.073.557,20.467,20.511,6.12,28.269.146,5.389-3.087,19.708-14.483,24-18.845,0,0,39.631-35.14,40.192-35.776,11.338-9.139,18.923-18.138,28.857-28.857,10.383-11.209,18.594-24.5,31.288-30.846,8.833-4.416,34.342-1.764,44.83-2.869s29.344-.544,35.042-.442,29.592,2.417,36.072,3.828a285.274,285.274,0,0,1,27.776,6.919c10.417,3.3,29.762,13.49,32.89,14.245,3.3.8,56.518,41.872,68.38,37.53,3.968-1.452,94.324-39.458,98.064-42.661.928-.792,14.058-11.236,4.416-11.138C1611.674,574.776,1542.747,596.008,1516.32,585.686Zm-111.167-18.413a325.411,325.411,0,0,0-40.488-3.24c-21.81-.275-42.644.347-42.919.333-9.5-.554-31.193-.775-35.29,1.435-15.462,8.333-25.879,27.661-36.194,36.459-4.345,3.393-19.409,19.746-36.956,35.545-10.832,9.754-25.539,21.653-27.433,23.537-2.159,2.149-12.144,9.231-21.443,16.061-10.624,7.806-21.354,13.9-21.9,11.274-.891-1.86-2.666-4.658.167-6.048a194.815,194.815,0,0,0,19.018-10.417c8.472-5.443,15.571-10.159,20.1-13.915.068-.054,9.1-7.027,19.777-17.278,17.376-16.683,40.505-40.655,46.808-47.21a142.355,142.355,0,0,0,21.293-29.534c8.489-14.249,11.012-16.193,26.74-13.048,8.323,1.663,12.9,2.084,21.864,4.267.347.085,10.672,2.356,28.562,4.712,6.687.88,15.139,1.129,23.557,1.843,15.136,1.282,30.149,2.621,34.515,3.036a284.5,284.5,0,0,1,37.629,6.9c11.824,3.09,58.976,13.871,68.938,18.471,26.492,8.132,59.673,2.56,76.42-2.244,4.573-1.312,35.661-8.34,35.793-8.357,13.575-1.751,4.124,4.488-8.806,7.857-25.213,6.562-75.18,34.287-83.37,32.522-22.438-4.834-57.759-30.816-63.947-34.318-8.027-4.542-22.337-8.965-26.355-10.1C1424.437,571.053,1405.578,567.34,1405.154,567.272Z" transform="translate(-1136.458 -546.555)" fill="#fff"/>
      </g>
      <path id="Caminho_3931" data-name="Caminho 3931" d="M1749.579,637.641c-5.412-23.462-6.592-48.2-16.451-70.325-14.059-26.94-48.226-18.61-86.41.377-9.3,4.624-38.9,1.18-38.9,1.18-70.209-7.619-141.56-5.871-210.532-22.514-28.786-3.957-84.42-28.12-108.457-9.394-24.781,24.444-38.01,58.568-62.478,83.737-54.672,68.5-124.439,53.771-106.934,93.579,9.053,22.313,14.13,46.553,27.362,66.84,41.709,56.049,158.883-88.776,205.708-108.243,60.2-36.551,123.953-22,163.88,35.661,4.342,5.858,36.384,39.642,45.129,45.285,7.751,5,13.99,6.416,25.244-1.683,0,0,10.189-7.653,10.22-8.057,10-11.107,20.235-21.993,32.24-30.945C1694.01,654.143,1760.571,679.72,1749.579,637.641Zm-29.812,23.73c-46.826,9.156-85.314,35.1-118.408,69.628-1.608,1.377-14.412,13.147-14.412,13.147-11.257,7.68-16.4,6.684-23.353.211-7.211-6.715-31.564-27.518-40.257-39.849-32.332-45.9-99.127-71.749-150.893-48.209-72.779,27.99-117.089,103.568-190.116,130.147-31.795,10.505-39.808-28.133-48.165-50.851-7.986-27.253-24.778-38.044,10.937-49.457,44.789-16.445,81.245-50.494,108.464-89.819,16.435-19.389,30.054-62.974,59.384-60.329a264.678,264.678,0,0,1,29.34,4.783c86.365,24.169,175.8,26.338,264.494,34.559,0,0,31.9,4.069,42.647-1.734,15.129-8.163,32.519-13.4,49.439-17.162,32.686-7.269,34.858,34.076,39.516,57.83C1741.964,642.438,1756.838,655.748,1719.767,661.371Z" transform="translate(-1035.324 -455.649)" fill="#fff"/>
      <path id="Caminho_3932" data-name="Caminho 3932" d="M1853.372,699.368c-11.913-46.332-9.89-99.267-39.257-138.576-34.841-38.425-82.214-30.775-126.748-11.07a41.439,41.439,0,0,1-19.716,4.4c-10.464.014-109.694-5.555-164.2-12.746-67.884-3.556-150.7-59.493-209.2-2.754-38.407,44.83-61.026,108.015-121.4,128.281-38.635,19.634-93.032,10.974-68.982,72.858,19.086,43.868,25.458,96.455,60.673,130.627,65.266,52.292,143.774-18.828,194.414-62.417,171.805-161.786,150.077,37.462,243.164,65.171,5.671,1.686,17.237.044,29.588-7.388,45.01-38.2,79.212-94.878,142.026-105.346C1814.992,747.125,1867.335,764.277,1853.372,699.368Zm-5.236,33.383c-7.694,16.737-44.527,16.639-60.686,19.5a4.148,4.148,0,0,1-3.356.751c-73.01,12.743-98.1,55.09-135.984,90.584-4.11,3.223-14.936,14.524-18.373,16.689-14.177,8.938-24.094,10.91-33.019,5.858-43.083-24.383-45.554-48.688-65.191-79.035-44.758-70.481-93.131-52.564-149.237-6.365l.034.014c-7.8,6.592-15.67,14.017-23.921,19.95a4.174,4.174,0,0,1-2.53,2.152l.037.01c-12.8,10.913-25.838,21.8-39.394,31.808l.037,0c-13.592,11.573-28.089,22.762-43.748,31.037l-.024-.034a90.294,90.294,0,0,1-22.473,10.529c-20.993,8.044-46.71,11.08-67.4.911-26.005-13.729-41.573-41.692-48.94-69.869l.062.007a44.267,44.267,0,0,1-4.186-11.3c-5.623-13.834-10.651-28.218-15.537-42.293-5.525-14.881-13.174-31.584-10.543-47.692,4.95-17.74,41.335-23.469,56.841-28.854a4.148,4.148,0,0,1,3.193-1.271c122.916-37.751,95.241-189.042,232.012-152.151,41.454,8.554,82.836,21.021,125.4,24.9,48.331,5.576,139.891,10.319,145.579,10.944s18.379-2.485,24.468-5.219c5.008-2.251,10.084-4.284,15.224-6.031l.017.037a90.4,90.4,0,0,1,23.853-6.844c22.007-4.62,47.879-3.556,66.7,9.757,23.509,17.665,34.457,47.74,37.275,76.727l-.058-.017a44.422,44.422,0,0,1,2.345,11.828c3.363,14.548,6.059,29.544,8.656,44.214C1848.368,699.559,1853.284,717.261,1848.136,732.751Z" transform="translate(-1080.25 -495.509)" fill="#fff"/>
      <path id="Caminho_3933" data-name="Caminho 3933" d="M1782.583,658.591c-3.291-17.56-6.657-35.1-9.907-52.673-4.08-26.862-16.411-61.411-48.077-61.411-29.9,0-51.813,9.683-69.767,19.671-6.711,3.733-25.975,1.02-25.975,1.02-46.437-5.562-93.406-6.66-140.031-10.74-53.944-3.951-105.312-22.19-158.692-29.221-27.045-3.682-47.906,17.1-60.35,39.533-41.535,66.49-74.85,99.9-149.448,123.582-13.378,5.933-10.441,21.507-5.98,32.6,6.028,16.819,12.127,33.61,18.111,50.446,8.279,25.876,25.883,57.824,57.185,53.033a81.2,81.2,0,0,0,21.932-6.058c76.247-31.1,129.865-123.794,213.12-135.234,67.506-7.8,89.347,46.033,122.236,92.005.524.731,6.81,9.737,12.41,17.478,3.369,4.654,6.486,8.857,7.952,10.526,5.236,5.953,14.147.6,30.255-9.737.52-.337,16.274-15.228,39.91-33.682,14.089-11,29.126-25.6,47.264-36.806,27.263-16.843,52.989-23.357,80.589-27.491C1791.885,690.383,1785.234,670.245,1782.583,658.591Zm-78.78,49.464c-25.355,12.739-39.3,20.95-57.222,37.027-10.787,9.676-50.187,43.745-53.931,45.448-11.987,5.46-17.662,17.013-30.36-1.69-4.627-6.817-11.141-16.475-12.555-18.3-22.228-28.749-32.846-55.179-63.467-75.907-119.771-84.464-248.5,182.61-328.736,114.709-19.049-19.539-23.69-48.053-33.716-72.79-28.541-64.695,11.9-36.085,69.084-77.352,19.681-14.147,36.466-31.275,51.344-50.5,26.45-32.485,44.058-90.7,95.279-78.872,51.269,9.74,101.854,23.829,153.922,29,44.884,3.923,90.163,4.148,134.832,10,0,0,23.2,2.21,31-1.829,38.558-19.964,72.08-28.779,94.65-2.5,15.724,22.3,15.8,51.194,21.786,77.2C1793.669,710.088,1766.821,676.4,1703.8,708.055Z" transform="translate(-1049.867 -467.944)" fill="#fff"/>
      <path id="Caminho_3934" data-name="Caminho 3934" d="M1817.362,674.736c-6.783-31.842-10.38-64.722-21.133-95.456v.024a65.757,65.757,0,0,0-7.588-14.473c-11.77-11.328-22.452-23.775-40.3-24.618-32.359-1.377-65.895,12.178-89.52,16.9-15.211,3.043-20.589,1.788-27.413,1.217-15.792-1.319-63.7-3.679-105.526-7.289-63.355-2-123.266-25.75-185.673-31.693-45-.218-66.32,44.738-88.864,77.495-13.841,19.555-29.245,37.571-48.3,52.187-53.866,44.524-120.927,21.619-92.1,85.2,11.733,30.37,20.484,62.267,35.96,90.914l0-.024c21.463,28.589,35.708,33.019,53.468,31.03,66.242-6.857,126.183-80.85,186.955-118.462,43.195-32.89,95.82-32.944,127.669,13.5.544.8,33.318,49.6,49.742,69.689,10.009,12.239,20.2,22.731,28.885,20.558,5.6-1.4,8.135-.384,15.489-7.8,8.724-8.8,27.844-26.556,47.9-45.435,16.873-17.009,34.818-32.475,55.944-43.895C1773.181,708.853,1835.775,742.073,1817.362,674.736Zm-116.65,72.378c-22.231,13.439-42.742,33.124-60.89,51.32-11.186,9.924-17.73,18.57-24.187,23.088-23.57,16.5-22.289,15.309-29.88,12.106-5.539-1.387-12.906-11.032-17.777-16.207-29.439-31.258-52.32-118.66-136.033-105.621-80.674,25.046-136.039,113.522-212.538,136.94-75.52,24.274-87.881-79-109.762-129.219-15.864-41.532,53.479-26.8,105.04-75.207,19.827-16.785,33.944-38.425,48.984-59.258,16.486-24.339,32.2-53.808,62.9-60.38,11.406-2.846,23.007-1.285,34.331.7,46.744,8.027,92.145,22.633,139.6,26.709,50,5.729,135.152,12.868,150.481,12.2,11-.483,19.413-7.354,77.387-19.77,26.82-4.117,43.982,5.338,55.5,21.681,12.26,17.39,18.135,42.582,22.456,67.53,3.492,20.151,5.974,40.141,9.989,55.736C1825.416,732.978,1759.276,707.469,1700.711,747.114Z" transform="translate(-1065.688 -481.056)" fill="#fff"/>
      <path id="Caminho_3935" data-name="Caminho 3935" d="M1704.9,584.041c-1.261-17.077-10.713-30.669-30.476-26.79-15.666,4.576-31.091,11.427-46.4,19.443-9.761,5.113-26.2-.218-37.027-1.088-56.957-7.806-115.107-5.528-171.924-15.516-17.581-2.434-34.913-6.092-52.2-9.972-20.824-2.23-73.418-25.131-87.7-8.357-39.587,61.349-79.535,117.8-149.414,145.13-13.871,10.7,1.316,34.759,4.967,48.739,3.947,16.662,15.431,28.589,34.331,21.633,87.3-41.42,153.569-160.106,261.743-134.509,1.143.268,2.295.564,3.451.867,3.23,1.1,13.47,4.583,14.238,4.862a104.268,104.268,0,0,1,37.83,23.4c8.3,5.548,33.386,36.748,64.658,55.937,6.174,3.787,11.572,3.437,18.793.143,3.686-1.683,15.84-10.563,15.626-10.8,33.121-30.115,69.8-54.016,116.7-64.208C1717.487,624.583,1706.3,598.418,1704.9,584.041Zm-7.83,46.829c-43.857,9.717-81.639,33.434-114.484,63.44-18.771,11.8-21.474,12.525-35.532,2.856-15.166-10.431-39.512-31.822-70.318-58.072a79.438,79.438,0,0,0-26.984-13.708c-.864-.245-10.7-3.522-14.316-4.668l.02-.1c-1.051-.292-2.094-.571-3.138-.836-108.178-27.44-176.531,89.574-262.685,133.547-13.834,4.8-24.295,2.081-29.3-12.542-4.209-12.293-8.527-24.55-12.175-37.034-2.4-8.228-.625-11.814,6.9-15.6,62.587-24.767,106.764-78.4,140.323-135.937,6.735-10.754,15.533-15.19,28.331-12.593,21.936,4.447,43.629,9.883,65.469,14.7,71.7,18.372,146.29,15.432,219.144,24.669,0,0,30.228,6.942,41.6.935,14.347-7.578,28.752-14.167,43.31-18.883,14.415-2.55,24.315,1.788,26.947,17.016,2.213,12.807,4.539,25.59,6.167,38.5C1707.421,625.059,1705.1,628.32,1697.068,630.869Z" transform="translate(-1017.661 -441.909)" fill="#fff"/>
      <path id="Caminho_3936" data-name="Caminho 3936" d="M1877.967,696.665c-11.086-45.771-12.293-102.922-44.33-139.776-27.854-28.579-69.692-34.644-120.479-24.125-23.03,4.77-59.2,13.636-80.786,14.255-51.333-4.763-123.715-4.889-207.041-30.245l-19.58-3.648c-97.506-22.806-119.077,35.161-167.579,105.265-39.1,52.353-78.344,46.383-127.7,72.963-29.337,18.209-15.578,56.671-6.031,82.669,18.182,43.446,25.478,94.674,62.941,126,84.5,62.849,175.983-33.335,239.668-86.678,125.531-112.319,109.16,67.989,205.63,91.971,0,0,21.266,3.046,28.238-.741,28.25-15.336,49.991-43.646,80.392-75.377,46.883-45.513,84.692-33.413,137.627-51.857C1890.787,764,1883.281,723.846,1877.967,696.665Zm-12.351,72.3c-14.456,11.5-34.708,12.562-52.116,15.017-94.079,7.286-115.361,78.063-168.218,111.9-12.488,7.993-23.19,4.648-29.143,4.906-73.276-8.119-83.968-150.934-158.145-124.368-58.116,26.1-97.5,81.344-152.141,113.489-38.768,24-92.784,40.927-132.259,10.665-41.525-31.04-48.345-87.137-67.7-132.779-6.062-18.634-15.938-40.848-5.882-59.85a15.48,15.48,0,0,1,5.191-7.258c12.457-13.643,32.292-17.893,49.09-23.068,132.609-31.9,99.556-192.483,251.687-160.239l17.475,3.961s.718.194,1.078.306C1507.5,547.533,1631.363,554.091,1631.58,554c.445.048,29.561-2.295,38.8-5.242,27.147-8.659,74.652-20.531,103.231-15.707,17.148,2.893,44.208,13.756,56.086,27.729,33.58,39.5,33.96,93.685,45.853,141.812,3.04,19.359,9.282,42.854-3.655,60.027A15.48,15.48,0,0,1,1865.615,768.962Z" transform="translate(-1092.741 -508.085)" fill="#fff"/>
    </g>
  </g>
</svg>
