<svg xmlns="http://www.w3.org/2000/svg" xmlns:xlink="http://www.w3.org/1999/xlink" width="350" height="283" viewBox="0 0 350 283">
  <defs>
    <clipPath id="clip-path">
      <rect id="Retângulo_2179" data-name="Retângulo 2179" width="350" height="283" rx="10" transform="translate(20 2855)" fill="#f2f2f2"/>
    </clipPath>
  </defs>
  <g id="Grupo_de_máscara_99" data-name="Grupo de máscara 99" transform="translate(-20 -2855)" clip-path="url(#clip-path)">
    <g id="Grupo_2120" data-name="Grupo 2120" transform="translate(-304.105 2703.356)">
      <path id="Caminho_3928" data-name="Caminho 3928" d="M1209.678,549.617c-7.45,11.949-15.115,23.725-24.3,34.406-13.638,15.871-29.216,29.134-48.091,38.034-3.907,1.834-8.635,5.085-6.807,10.158,2.994,5.957,3.377,21.62,13.194,16.561,31.189-17.16,53.874-46.6,84.6-64.6,32.587-21.589,76.957-21.167,106.313,5.132.511.458,33.079,21.918,33.579,22.392,4.066,3.556,5.929,2.911,9.764.081,9.245-6.829,42.235-23.694,65.622-33.664,7.73-3.3,3.172-25.836-7.815-22.77-28.339,7.906-13.222,4.71-29.862,8.409-14.646,3.255-41.2-1.649-42.837-1.791-16.145-1.39-32.52-1.692-48.637-3.647-27.954-2-55.784-8.965-82.783-15.482C1220.929,540.628,1215.4,538.417,1209.678,549.617Zm97.76,20.707c-67.013-24.445-113.023,44.124-164.065,75.313-3.923,1.982-4.817,1.639-6.318-2.631-.909-5.568-8.18-14.332-.3-17.344,32.795-15.2,57.179-43.771,75.424-74.832,2.27-4.32,5.5-7.843,10.673-6.8,7.618,1.085,14.985,3.254,22.431,5.059,38.037,11.113,70.678,12.062,109.87,14.861,2.734.2,27.786,4.337,30.516,4.551.517.039,14.683,2.527,51.466-9.188,3.953-.775,11.016,13.267,3.538,16.6-22.459,10.01-57.624,28.307-60.906,30.392-7.69,4.884-10.62,2.442-18.675-2.318-9.585-5.663-22.3-14.583-24.11-16.245C1333.41,584.469,1326.581,577.926,1307.438,570.324Z" transform="translate(-1062.668 -476.035)" fill="#fff"/>
      <g id="Grupo_2039" data-name="Grupo 2039" transform="translate(82.994 75.882)">
        <path id="Caminho_3929" data-name="Caminho 3929" d="M1233.763,556.79" transform="translate(-1041.831 -536.602)" fill="#fff"/>
        <path id="Caminho_3930" data-name="Caminho 3930" d="M1356.845,569.258c-2.306-.682-29.218-7.087-29.218-7.087s-22.108-5.091-26.053-5.56-26.467-2.547-31.852-2.809-16.965-2.146-16.965-2.146-14.257-2.412-19.3-3.365c-14.141-2.1-15.494-4.174-20.38,5.9-10.267,14.658-17.474,21.405-27.437,33.108l-24.857,23.192a169.073,169.073,0,0,1-21.583,13.034c-.913.454-2.47,1.085-2.742,2.363.323,11.874,11.9,3.55,16.4.085a107.3,107.3,0,0,0,13.924-10.934s22.993-20.388,23.319-20.756c6.578-5.3,10.979-10.523,16.742-16.742,6.024-6.5,10.788-14.214,18.153-17.9,5.125-2.562,19.924-1.024,26.009-1.665s17.024-.316,20.33-.256a208.809,208.809,0,0,1,20.928,2.221,165.507,165.507,0,0,1,16.115,4.014c6.044,1.913,17.267,7.827,19.082,8.265,1.917.464,32.79,24.293,39.672,21.774,2.3-.842,54.725-22.893,56.895-24.751.538-.459,8.156-6.519,2.562-6.462C1412.167,562.928,1372.177,575.246,1356.845,569.258Zm-64.5-10.683a188.8,188.8,0,0,0-23.49-1.88c-12.654-.16-24.741.2-24.9.193-5.509-.322-18.1-.45-20.474.832-8.971,4.835-15.015,16.048-21,21.153-2.521,1.969-11.261,11.456-21.441,20.622-6.285,5.659-14.817,12.563-15.916,13.655-1.252,1.247-7.046,5.355-12.44,9.318-6.164,4.529-12.389,8.064-12.709,6.541-.517-1.079-1.546-2.7.1-3.509a113.036,113.036,0,0,0,11.034-6.044,132.133,132.133,0,0,0,11.659-8.073c.04-.032,5.28-4.077,11.474-10.024,10.081-9.679,23.5-23.587,27.157-27.39a82.6,82.6,0,0,0,12.354-17.135c4.925-8.267,6.389-9.395,15.514-7.57,4.828.965,7.482,1.209,12.685,2.475.2.049,6.192,1.367,16.571,2.734,3.88.511,8.784.655,13.667,1.069,8.781.744,17.492,1.521,20.025,1.761a165.054,165.054,0,0,1,21.831,4c6.86,1.793,34.217,8.048,40,10.717,15.37,4.718,34.621,1.485,44.337-1.3,2.653-.761,20.689-4.838,20.766-4.848,7.876-1.016,2.393,2.6-5.109,4.559-14.628,3.807-43.618,19.892-48.369,18.869-13.018-2.8-33.511-17.878-37.1-19.91-4.657-2.635-12.959-5.2-15.291-5.862C1303.537,560.768,1292.6,558.614,1292.349,558.575Z" transform="translate(-1136.458 -546.555)" fill="#fff"/>
      </g>
      <path id="Caminho_3931" data-name="Caminho 3931" d="M1477.643,592.423c-3.087-13.612-3.76-27.966-9.383-40.8-8.018-15.63-27.505-10.8-49.283.219-5.3,2.682-22.188.684-22.188.684-40.043-4.42-80.737-3.406-120.075-13.062-16.418-2.3-48.148-16.314-61.857-5.45-14.134,14.182-21.679,33.98-35.634,48.582-31.182,39.744-70.973,31.2-60.989,54.293,5.163,12.945,8.059,27.009,15.605,38.779,23.788,32.518,90.617-51.506,117.324-62.8,34.333-21.206,70.7-12.766,93.468,20.689,2.476,3.4,20.751,23,25.739,26.273,4.421,2.9,7.979,3.722,14.4-.976,0,0,5.811-4.44,5.829-4.675,5.7-6.444,11.541-12.76,18.388-17.954C1445.949,602,1483.912,616.837,1477.643,592.423Zm-17,13.768c-26.707,5.312-48.658,20.366-67.533,40.4-.917.8-8.22,7.628-8.22,7.628-6.42,4.456-9.354,3.878-13.319.122-4.113-3.9-18-15.965-22.96-23.119-18.44-26.633-56.536-41.627-86.06-27.97-41.509,16.239-66.781,60.088-108.431,75.509-18.134,6.095-22.7-16.322-27.47-29.5-4.555-15.811-14.132-22.072,6.238-28.694,25.545-9.541,46.337-29.3,61.861-52.111,9.373-11.249,17.141-36.536,33.869-35a148.6,148.6,0,0,1,16.734,2.775c49.257,14.022,100.266,15.281,150.851,20.05,0,0,18.192,2.361,24.323-1.006,8.629-4.736,18.547-7.774,28.2-9.957,18.642-4.217,19.881,19.77,22.538,33.552C1473.3,595.207,1481.782,602.929,1460.639,606.191Z" transform="translate(-1069.474 -486.836)" fill="#fff"/>
      <path id="Caminho_3932" data-name="Caminho 3932" d="M1530.009,621.263c-6.813-26.881-5.657-57.593-22.453-80.4-19.927-22.293-47.022-17.855-72.493-6.422a23.43,23.43,0,0,1-11.276,2.55c-5.985.008-62.739-3.223-93.911-7.395-38.826-2.063-86.192-34.517-119.653-1.6-21.967,26.009-34.9,62.668-69.432,74.426-22.1,11.391-53.209,6.367-39.454,42.27,10.917,25.451,14.56,55.961,34.7,75.787,37.328,30.339,82.231-10.924,111.194-36.213,98.263-93.865,85.836,21.735,139.077,37.811,3.244.978,9.859.026,16.923-4.286,25.743-22.161,45.3-55.046,81.231-61.12C1508.057,648.971,1537.995,658.922,1530.009,621.263Zm-2.995,19.368c-4.4,9.71-25.467,9.653-34.709,11.316a2.346,2.346,0,0,1-1.919.436c-41.758,7.393-56.11,31.962-77.776,52.555-2.351,1.87-8.542,8.426-10.508,9.683-8.109,5.186-13.781,6.33-18.885,3.4-24.641-14.147-26.054-28.248-37.286-45.854-25.6-40.892-53.266-30.5-85.356-3.693l.019.008c-4.461,3.825-8.962,8.133-13.681,11.575a2.4,2.4,0,0,1-1.447,1.249l.021.006c-7.319,6.332-14.778,12.65-22.531,18.455l.021,0c-7.774,6.714-16.065,13.206-25.022,18.007l-.014-.02a51.314,51.314,0,0,1-12.853,6.109c-12.007,4.667-26.715,6.428-38.549.529-14.874-7.965-23.777-24.189-27.991-40.537l.035,0a25.919,25.919,0,0,1-2.394-6.559c-3.216-8.026-6.092-16.372-8.886-24.538-3.16-8.634-7.535-18.324-6.03-27.67,2.831-10.292,23.641-13.616,32.51-16.741a2.355,2.355,0,0,1,1.826-.738c70.3-21.9,54.473-109.678,132.7-88.275,23.709,4.963,47.378,12.2,71.719,14.448,27.643,3.235,80.01,5.987,83.263,6.35s10.512-1.442,13.995-3.028c2.864-1.306,5.767-2.485,8.707-3.5l.01.022a51.144,51.144,0,0,1,13.643-3.971c12.587-2.681,27.385-2.063,38.149,5.661,13.446,10.249,19.708,27.7,21.319,44.515l-.033-.01a26.1,26.1,0,0,1,1.341,6.862c1.923,8.44,3.465,17.141,4.951,25.652C1527.147,621.374,1529.958,631.644,1527.014,640.631Z" transform="translate(-1087.679 -502.989)" fill="#fff"/>
      <path id="Caminho_3933" data-name="Caminho 3933" d="M1494.26,602.427c-1.879-10.188-3.8-20.366-5.656-30.56-2.329-15.585-9.37-35.629-27.449-35.629-17.069,0-29.582,5.618-39.832,11.413-3.832,2.166-14.83.592-14.83.592-26.513-3.227-53.328-3.864-79.948-6.231-30.8-2.292-60.126-12.874-90.6-16.953-15.441-2.136-27.351,9.924-34.456,22.936-23.714,38.576-42.734,57.959-85.325,71.7-7.638,3.442-5.961,12.478-3.414,18.912,3.442,9.758,6.924,19.5,10.34,29.268,4.727,15.013,14.777,33.548,32.649,30.769a45.775,45.775,0,0,0,12.521-3.515c43.532-18.046,74.144-71.822,121.677-78.46,38.541-4.525,51.011,26.708,69.789,53.379.3.424,3.888,5.649,7.085,10.141,1.923,2.7,3.7,5.138,4.54,6.107,2.989,3.454,8.077.351,17.274-5.649.3-.2,9.292-8.835,22.786-19.541,8.044-6.383,16.629-14.853,26.985-21.354,15.565-9.772,30.253-13.551,46.011-15.949C1499.571,620.872,1495.774,609.189,1494.26,602.427Zm-44.978,28.7c-14.476,7.391-22.439,12.154-32.67,21.482-6.159,5.614-28.654,25.38-30.791,26.368-6.844,3.168-10.084,9.87-17.333-.98-2.642-3.955-6.361-9.559-7.168-10.62-12.691-16.679-18.753-32.014-36.235-44.04-68.381-49-141.876,105.946-187.686,66.552-10.876-11.336-13.525-27.879-19.25-42.231-16.295-37.534,6.792-20.936,39.442-44.878a143.075,143.075,0,0,0,29.314-29.3c15.1-18.847,25.154-52.62,54.4-45.76,29.271,5.651,58.152,13.825,87.879,16.825,25.626,2.276,51.477,2.407,76.98,5.8,0,0,13.246,1.282,17.7-1.061,22.014-11.582,41.153-16.7,54.039-1.452,8.977,12.94,9.02,29.7,12.438,44.791C1500.59,632.3,1485.261,612.757,1449.282,631.125Z" transform="translate(-1075.367 -491.818)" fill="#fff"/>
      <path id="Caminho_3934" data-name="Caminho 3934" d="M1511.673,609.5c-3.876-18.474-5.932-37.55-12.077-55.381v.014a38.358,38.358,0,0,0-4.337-8.4c-6.726-6.572-12.831-13.794-23.031-14.283-18.492-.8-37.657,7.065-51.158,9.805a41.642,41.642,0,0,1-15.666.706c-9.025-.765-36.4-2.134-60.305-4.229-36.206-1.16-70.443-14.94-106.107-18.387-25.718-.126-37.9,25.956-50.784,44.961-7.909,11.346-16.713,21.8-27.6,30.278-30.783,25.832-69.107,12.543-52.633,49.429,6.705,17.62,11.706,36.126,20.55,52.746l0-.014c12.266,16.587,20.406,19.157,30.556,18,37.855-3.978,72.11-46.908,106.84-68.729,24.685-19.082,54.759-19.113,72.959,7.833.311.464,19.041,28.777,28.426,40.432,5.72,7.1,11.543,13.188,16.507,11.927,3.2-.813,4.649-.223,8.852-4.527,4.985-5.107,15.912-15.407,27.373-26.36,9.642-9.868,19.9-18.841,31.97-25.467C1486.425,629.294,1522.2,648.568,1511.673,609.5Zm-66.663,41.992c-12.7,7.8-24.426,19.218-34.8,29.775-6.392,5.758-10.132,10.774-13.822,13.4-13.47,9.574-12.738,8.882-17.076,7.024-3.165-.8-7.375-6.4-10.159-9.4-16.824-18.135-29.9-68.844-77.739-61.279-46.1,14.531-77.743,65.863-121.46,79.45-43.157,14.083-50.222-45.835-62.726-74.97-9.066-24.1,30.562-15.549,60.028-43.633,11.331-9.738,19.4-22.293,27.993-34.38,9.421-14.121,18.4-31.218,35.947-35.031,6.519-1.651,13.148-.746,19.619.406,26.713,4.657,52.658,13.131,79.777,15.5,28.576,3.324,77.236,7.466,86,7.077,6.285-.28,11.094-4.266,44.224-11.47,15.327-2.389,25.135,3.1,31.719,12.579,7.006,10.089,10.364,24.705,12.833,39.179,2,11.691,3.414,23.289,5.708,32.337C1516.276,643.291,1478.479,628.492,1445.011,651.493Z" transform="translate(-1081.778 -497.132)" fill="#fff"/>
      <path id="Caminho_3935" data-name="Caminho 3935" d="M1454.854,563.73c-.719-9.908-6.1-17.794-17.357-15.543a143.989,143.989,0,0,0-26.427,11.281c-5.559,2.967-14.921-.126-21.088-.631-32.439-4.529-65.558-3.207-97.917-9-10.013-1.412-19.884-3.535-29.728-5.785-11.86-1.294-41.814-14.581-49.947-4.848-22.546,35.593-45.3,68.346-85.1,84.2-7.9,6.205.749,20.167,2.829,28.277,2.248,9.667,8.789,16.587,19.553,12.551,49.721-24.031,87.463-92.89,149.072-78.039.651.156,1.307.327,1.965.5,1.84.637,7.672,2.659,8.109,2.821a59.22,59.22,0,0,1,21.545,13.578c4.725,3.219,19.015,21.321,36.825,32.453,3.516,2.2,6.591,1.994,10.7.083a64.817,64.817,0,0,0,8.9-6.268c18.863-17.472,39.756-31.339,66.464-37.252C1462.023,587.252,1455.649,572.071,1454.854,563.73Zm-4.459,27.169c-24.978,5.637-46.5,19.4-65.2,36.807-10.69,6.844-12.23,7.267-20.237,1.657-8.638-6.052-22.5-18.462-40.048-33.692a44.938,44.938,0,0,0-15.368-7.953c-.492-.142-6.092-2.044-8.154-2.708l.011-.057c-.6-.17-1.193-.331-1.787-.485C1238,568.547,1199.068,636.435,1150,661.948c-7.879,2.783-13.837,1.207-16.687-7.277-2.4-7.132-4.856-14.243-6.934-21.486-1.369-4.773-.356-6.854,3.931-9.052,35.646-14.37,60.806-45.485,79.919-78.868,3.836-6.239,8.847-8.813,16.135-7.306,12.493,2.58,24.849,5.734,37.287,8.529,40.835,10.659,83.317,8.953,124.81,14.312,0,0,17.216,4.028,23.692.543a155.236,155.236,0,0,1,24.667-10.955c8.21-1.479,13.848,1.038,15.347,9.872,1.261,7.43,2.585,14.847,3.512,22.334C1456.29,587.528,1454.968,589.419,1450.394,590.9Z" transform="translate(-1062.316 -481.268)" fill="#fff"/>
      <path id="Caminho_3936" data-name="Caminho 3936" d="M1542.112,617.495c-6.345-26.555-7.035-59.713-25.369-81.095-15.941-16.581-39.884-20.1-68.948-14-13.18,2.767-33.881,7.912-46.232,8.271-29.377-2.763-70.8-2.836-118.485-17.547l-11.2-2.117c-55.8-13.231-68.146,20.4-95.9,61.072-22.377,30.374-44.835,26.911-73.078,42.332-16.789,10.564-8.915,32.879-3.452,47.963,10.405,25.206,14.581,54.928,36.02,73.1,48.355,36.463,100.712-19.34,137.158-50.288,71.839-65.165,62.47,39.446,117.678,53.36,0,0,12.17,1.767,16.16-.43,16.167-8.9,28.609-25.323,46.007-43.732,26.83-26.406,48.468-19.385,78.762-30.086C1549.448,656.56,1545.153,633.265,1542.112,617.495Zm-7.068,41.945c-8.273,6.673-19.863,7.288-29.825,8.712-53.84,4.227-66.019,45.29-96.268,64.924-7.146,4.637-13.271,2.7-16.678,2.846-41.934-4.71-48.053-87.568-90.5-72.156-33.259,15.143-55.8,47.194-87.068,65.844-22.186,13.922-53.1,23.745-75.69,6.188-23.764-18.009-27.667-50.555-38.742-77.035-3.469-10.811-9.121-23.7-3.366-34.724a8.978,8.978,0,0,1,2.971-4.211c7.129-7.916,18.48-10.381,28.093-13.383,75.89-18.508,56.974-111.674,144.036-92.967l10,2.3s.411.112.617.177c47.477,15.018,118.363,18.823,118.488,18.768.255.028,16.917-1.331,22.2-3.042,15.536-5.024,42.722-11.912,59.077-9.113,9.814,1.679,25.3,7.981,32.1,16.088,19.217,22.916,19.435,54.354,26.241,82.276,1.74,11.231,5.312,24.863-2.092,34.826A8.924,8.924,0,0,1,1535.043,659.44Z" transform="translate(-1092.741 -508.085)" fill="#fff"/>
    </g>
    <g id="Grupo_2121" data-name="Grupo 2121" transform="translate(769.495 3336.235) rotate(-179)">
      <g id="Componente_11_1" data-name="Componente 11 – 1" transform="translate(-0.686 18.015)">
        <path id="Caminho_3928-2" data-name="Caminho 3928" d="M1232.47,552.072c-9.583,15.371-19.443,30.518-31.252,44.258-17.543,20.415-37.582,37.476-61.862,48.924-5.026,2.36-11.108,6.541-8.756,13.067,3.851,7.663,4.344,27.811,16.972,21.3,40.12-22.074,69.3-59.946,108.829-83.1,41.918-27.771,98.992-27.228,136.755,6.6.657.589,42.55,28.194,43.195,28.8,5.23,4.575,7.627,3.745,12.56.1,11.892-8.784,54.328-30.478,84.413-43.3,9.944-4.24,4.08-33.233-10.052-29.29-36.453,10.169-17.008,6.059-38.412,10.816-18.839,4.187-53-2.121-55.1-2.3-20.768-1.789-41.832-2.177-62.564-4.691-35.958-2.573-71.757-11.532-106.487-19.915C1246.942,540.509,1239.826,537.665,1232.47,552.072Zm125.753,26.636c-86.2-31.445-145.386,56.759-211.044,96.878-5.047,2.55-6.2,2.109-8.127-3.385-1.169-7.163-10.522-18.436-.388-22.31,42.185-19.555,73.551-56.3,97.021-96.259,2.921-5.557,7.074-10.088,13.729-8.741,9.8,1.4,19.276,4.186,28.854,6.508,48.929,14.295,90.916,15.515,141.33,19.116,3.516.251,35.742,5.579,39.254,5.854.665.051,18.887,3.25,66.2-11.819,5.084-1,14.17,17.066,4.551,21.351-28.889,12.877-74.124,36.413-78.346,39.095-9.893,6.282-13.661,3.141-24.022-2.981-12.329-7.285-28.682-18.758-31.014-20.9C1391.631,596.9,1382.847,588.487,1358.223,578.708Z" transform="translate(-1034.342 -457.438)" fill="#fff"/>
        <path id="Caminho_3929-2" data-name="Caminho 3929" d="M1233.763,556.79" transform="translate(-875.265 -451.226)" fill="#fff"/>
        <path id="Caminho_3930-2" data-name="Caminho 3930" d="M1419.951,575.759c-2.966-.878-37.584-9.117-37.584-9.117s-28.438-6.549-33.513-7.153-34.045-3.276-40.972-3.613-21.823-2.76-21.823-2.76-18.339-3.1-24.827-4.329c-18.19-2.7-19.93-5.369-26.215,7.586-13.206,18.855-22.478,27.535-35.294,42.588L1167.748,628.8c-9.213,6.3-17.058,11.453-27.763,16.766-1.175.584-3.177,1.4-3.527,3.04.416,15.274,15.307,4.567,21.1.109,4.022-2.3,14.709-10.809,17.911-14.064,0,0,29.577-26.225,30-26.7,8.462-6.82,14.122-13.536,21.536-21.536,7.749-8.366,13.876-18.284,23.351-23.021,6.592-3.3,25.629-1.317,33.457-2.141s21.9-.406,26.152-.33,22.085,1.8,26.921,2.857a212.9,212.9,0,0,1,20.73,5.163c7.774,2.461,22.211,10.068,24.546,10.631,2.466.6,42.18,31.249,51.032,28.009,2.961-1.083,70.395-29.448,73.186-31.838.692-.591,10.492-8.386,3.3-8.312C1491.114,567.616,1439.673,583.462,1419.951,575.759Zm-82.964-13.742a242.85,242.85,0,0,0-30.216-2.418c-16.277-.205-31.825.259-32.031.249-7.086-.414-23.28-.578-26.337,1.071-11.54,6.219-19.314,20.643-27.012,27.21-3.243,2.532-14.485,14.737-27.58,26.527-8.084,7.279-19.06,16.16-20.473,17.565-1.611,1.6-9.063,6.889-16,11.986-7.929,5.826-15.937,10.372-16.348,8.414-.665-1.388-1.989-3.476.124-4.514a145.392,145.392,0,0,0,14.193-7.774,169.967,169.967,0,0,0,15-10.385c.051-.041,6.792-5.245,14.759-12.894,12.968-12.451,30.229-30.341,34.933-35.233a106.246,106.246,0,0,0,15.891-22.041c6.336-10.634,8.218-12.085,19.956-9.738,6.211,1.241,9.624,1.555,16.317,3.184.259.063,7.964,1.758,21.316,3.517,4.991.657,11.3.842,17.581,1.375,11.3.957,22.5,1.956,25.758,2.266a212.333,212.333,0,0,1,28.083,5.151c8.824,2.306,44.014,10.352,51.448,13.785,19.771,6.069,44.534,1.911,57.033-1.675,3.413-.979,26.614-6.224,26.713-6.237,10.131-1.307,3.078,3.349-6.572,5.864-18.817,4.9-56.107,25.588-62.219,24.272-16.746-3.608-43.106-23-47.724-25.611-5.991-3.39-16.67-6.691-19.669-7.541C1351.378,564.838,1337.3,562.067,1336.987,562.017Z" transform="translate(-1024.536 -448.962)" fill="#fff"/>
        <path id="Caminho_3931-2" data-name="Caminho 3931" d="M1589.013,610.316c-4.039-17.51-4.92-35.974-12.278-52.484-10.492-20.106-35.991-13.889-64.488.282-6.939,3.451-29.034.88-29.034.88-52.4-5.686-105.647-4.382-157.121-16.8-21.483-2.953-63-20.986-80.942-7.01-18.495,18.243-28.367,43.71-46.628,62.493-40.8,51.124-92.87,40.13-79.805,69.839,6.757,16.652,10.545,34.743,20.42,49.883,31.127,41.83,118.575-66.254,153.521-80.782,44.925-27.278,92.507-16.421,122.3,26.614,3.24,4.372,27.154,29.585,33.68,33.8,5.785,3.732,10.441,4.788,18.839-1.256,0,0,7.6-5.711,7.627-6.013,7.462-8.289,15.1-16.414,24.061-23.094C1547.541,622.632,1597.216,641.72,1589.013,610.316Zm-22.249,17.71c-34.946,6.833-63.671,26.2-88.368,51.964-1.2,1.028-10.756,9.812-10.756,9.812-8.4,5.732-12.24,4.988-17.428.157-5.382-5.011-23.556-20.537-30.044-29.74-24.13-34.258-73.979-53.547-112.612-35.979-54.316,20.889-87.384,77.293-141.885,97.13-23.729,7.84-29.709-21-35.946-37.95-5.96-20.339-18.492-28.392,8.163-36.91,33.426-12.273,60.633-37.684,80.947-67.032,12.265-14.47,22.429-47,44.319-45.024a197.523,197.523,0,0,1,21.9,3.57c64.454,18.037,131.2,19.656,197.393,25.792,0,0,23.8,3.037,31.828-1.294,11.291-6.092,24.269-10,36.9-12.808,24.394-5.425,26.015,25.431,29.491,43.159C1583.329,613.9,1594.43,623.83,1566.763,628.026Z" transform="translate(-1054.961 -474.513)" fill="#fff"/>
        <path id="Caminho_3932-2" data-name="Caminho 3932" d="M1661.725,652.17c-8.89-34.578-7.381-74.083-29.3-103.42-26-28.676-61.356-22.968-94.592-8.261a30.927,30.927,0,0,1-14.714,3.281c-7.81.01-81.865-4.146-122.541-9.512-50.662-2.654-112.468-44.4-156.129-2.055-28.664,33.457-45.544,80.612-90.6,95.737-28.834,14.653-69.43,8.19-51.482,54.374,14.244,32.739,19,71.985,45.281,97.487,48.708,39.026,107.3-14.052,145.092-46.582,128.219-120.742,112,27.958,181.474,48.637,4.232,1.258,12.864.033,22.082-5.513,33.591-28.506,59.116-70.808,105.995-78.62C1633.081,687.811,1672.145,700.612,1661.725,652.17Zm-3.908,24.914c-5.742,12.491-33.23,12.417-45.29,14.556a3.1,3.1,0,0,1-2.5.561c-54.488,9.51-73.216,41.114-101.486,67.6-3.068,2.405-11.146,10.839-13.712,12.455-10.581,6.67-17.982,8.142-24.642,4.372-32.153-18.2-34-36.336-48.652-58.984-33.4-52.6-69.5-39.229-111.377-4.75l.025.01c-5.821,4.92-11.694,10.461-17.852,14.889a3.115,3.115,0,0,1-1.888,1.606l.028.008c-9.551,8.145-19.283,16.272-29.4,23.739l.028,0c-10.144,8.637-20.963,16.987-32.65,23.163l-.018-.025a67.389,67.389,0,0,1-16.771,7.858c-15.667,6-34.86,8.269-50.3.68-19.408-10.246-31.026-31.115-36.524-52.144l.046.005a33.035,33.035,0,0,1-3.124-8.437c-4.2-10.324-7.949-21.059-11.6-31.564-4.123-11.106-9.832-23.571-7.868-35.593,3.695-13.239,30.849-17.515,42.421-21.534a3.1,3.1,0,0,1,2.383-.949c91.733-28.174,71.079-141.083,173.152-113.551,30.937,6.384,61.821,15.688,93.583,18.585,36.07,4.161,104.4,7.7,108.646,8.168s13.716-1.855,18.261-3.895c3.737-1.68,7.526-3.2,11.362-4.5l.013.028a67.461,67.461,0,0,1,17.8-5.108c16.424-3.448,35.733-2.654,49.779,7.282,17.545,13.184,25.716,35.629,27.819,57.261l-.043-.013a33.164,33.164,0,0,1,1.75,8.827c2.51,10.857,4.521,22.049,6.46,33C1657.99,652.312,1661.659,665.524,1657.817,677.084Z" transform="translate(-1083.74 -500.046)" fill="#fff"/>
        <path id="Caminho_3933-2" data-name="Caminho 3933" d="M1612.106,624.652c-2.456-13.105-4.968-26.2-7.394-39.31-3.045-20.047-12.248-45.831-35.88-45.831-22.313,0-38.668,7.226-52.068,14.681-5.009,2.786-19.385.761-19.385.761-34.657-4.151-69.709-4.971-104.506-8.015-40.259-2.948-78.595-16.561-118.433-21.808-20.184-2.748-35.753,12.765-45.039,29.5-31,49.622-55.861,74.555-111.534,92.23-9.984,4.428-7.792,16.051-4.463,24.328,4.5,12.552,9.051,25.084,13.516,37.648,6.178,19.311,19.317,43.154,42.677,39.579a60.6,60.6,0,0,0,16.368-4.521c56.9-23.214,96.919-92.388,159.052-100.926,50.38-5.82,66.68,34.355,91.225,68.664.391.546,5.082,7.267,9.261,13.044,2.514,3.474,4.841,6.61,5.934,7.856,3.907,4.443,10.558.451,22.58-7.267.388-.251,12.146-11.365,29.785-25.137,10.515-8.211,21.737-19.106,35.273-27.469,20.346-12.57,39.546-17.431,60.144-20.516C1619.048,648.378,1614.085,633.35,1612.106,624.652Zm-58.794,36.915c-18.923,9.507-29.331,15.635-42.705,27.634-8.05,7.221-37.455,32.647-40.249,33.918-8.946,4.075-13.181,12.7-22.658-1.261-3.453-5.087-8.315-12.3-9.37-13.661-16.589-21.455-24.513-41.18-47.366-56.65-89.386-63.036-185.455,136.283-245.338,85.608-14.216-14.582-17.68-35.862-25.162-54.323-21.3-48.282,8.878-26.931,51.558-57.728,14.688-10.558,27.215-23.34,38.318-37.689,19.74-24.244,32.881-67.687,71.107-58.862,38.262,7.269,76.015,17.784,114.873,21.643,33.5,2.928,67.289,3.1,100.626,7.462,0,0,17.315,1.649,23.135-1.365,28.776-14.9,53.793-21.478,70.638-1.867,11.735,16.645,11.791,38.206,16.259,57.617C1620.38,663.084,1600.343,637.94,1553.312,661.567Z" transform="translate(-1064.276 -482.388)" fill="#fff"/>
        <path id="Caminho_3934-2" data-name="Caminho 3934" d="M1636.389,635.315c-5.062-23.764-7.746-48.3-15.772-71.239v.018a49.075,49.075,0,0,0-5.663-10.8c-8.784-8.454-16.756-17.743-30.077-18.373-24.15-1.028-49.177,9.089-66.809,12.613-11.352,2.271-15.366,1.335-20.458.908-11.786-.984-47.539-2.745-78.755-5.44-47.282-1.492-91.994-19.217-138.568-23.652-33.586-.162-49.495,33.388-66.32,57.835-10.329,14.594-21.826,28.039-36.047,38.947-40.2,33.228-90.249,16.135-68.735,63.582,8.756,22.665,15.287,46.47,26.837,67.849l0-.018c16.018,21.336,26.649,24.642,39.9,23.158,49.437-5.118,94.171-60.339,139.525-88.409,32.236-24.546,71.511-24.586,95.28,10.076.406.6,24.865,37.016,37.123,52.009,7.47,9.134,15.074,16.964,21.557,15.343,4.179-1.045,6.072-.287,11.56-5.823,6.51-6.569,20.78-19.819,35.748-33.908,12.592-12.694,25.985-24.236,41.751-32.759C1603.417,660.777,1650.131,685.568,1636.389,635.315Zm-87.057,54.016c-16.592,10.03-31.9,24.721-45.443,38.3-8.348,7.406-13.232,13.859-18.051,17.231-17.591,12.316-16.635,11.425-22.3,9.035-4.134-1.035-9.632-8.233-13.267-12.1-21.971-23.328-39.047-88.556-101.522-78.826-60.207,18.692-101.527,84.722-158.618,102.2-56.361,18.116-65.586-58.959-81.916-96.437-11.839-31,39.912-20,78.392-56.127,14.8-12.526,25.332-28.676,36.557-44.225,12.3-18.164,24.033-40.157,46.945-45.062,8.513-2.124,17.17-.959,25.621.523,34.885,5.991,68.768,16.891,104.183,19.933,37.319,4.275,100.865,9.6,112.305,9.1,8.208-.36,14.488-5.488,57.754-14.754,20.016-3.073,32.824,3.984,41.423,16.18,9.15,12.978,13.534,31.779,16.759,50.4,2.606,15.038,4.458,29.958,7.455,41.6C1642.4,678.781,1593.04,659.744,1549.332,689.331Z" transform="translate(-1074.412 -490.788)" fill="#fff"/>
        <path id="Caminho_3935-2" data-name="Caminho 3935" d="M1557.534,571.767c-.941-12.745-8-22.889-22.744-19.994a190.591,190.591,0,0,0-34.629,14.511c-7.285,3.816-19.552-.162-27.633-.812-42.507-5.826-85.905-4.126-128.308-11.58-13.12-1.817-26.055-4.547-38.955-7.442-15.541-1.664-54.793-18.756-65.449-6.237-29.544,45.785-59.357,87.917-111.509,108.312-10.352,7.982.982,25.941,3.707,36.374,2.946,12.435,11.517,21.336,25.621,16.145,65.153-30.912,114.609-119.488,195.34-100.385.853.2,1.713.421,2.575.647,2.41.82,10.053,3.42,10.626,3.628a77.816,77.816,0,0,1,28.232,17.467c6.191,4.141,24.916,27.425,48.254,41.746,4.608,2.827,8.636,2.565,14.026.107,2.75-1.256,11.822-7.883,11.662-8.063,24.718-22.475,52.1-40.312,87.092-47.919C1566.929,602.024,1558.577,582.5,1557.534,571.767Zm-5.843,34.949c-32.731,7.252-60.928,24.952-85.44,47.346-14.009,8.8-16.026,9.347-26.518,2.131-11.318-7.784-29.488-23.749-52.479-43.339a59.287,59.287,0,0,0-20.138-10.23c-.645-.183-7.982-2.629-10.685-3.484l.015-.074c-.784-.218-1.563-.426-2.342-.624-80.734-20.478-131.746,66.85-196.043,99.667-10.324,3.58-18.131,1.553-21.866-9.36-3.141-9.175-6.364-18.322-9.086-27.638-1.794-6.14-.467-8.817,5.151-11.644,46.709-18.484,79.678-58.51,104.724-101.451,5.026-8.026,11.593-11.337,21.143-9.4,16.371,3.319,32.561,7.376,48.86,10.971C1360.5,563.3,1416.164,561.105,1470.536,568c0,0,22.559,5.181,31.046.7A205.363,205.363,0,0,1,1533.9,554.6c10.758-1.9,18.146,1.335,20.111,12.7,1.652,9.558,3.387,19.1,4.6,28.73C1559.417,602.379,1557.684,604.813,1551.691,606.715Z" transform="translate(-1043.646 -465.711)" fill="#fff"/>
        <path id="Caminho_3936-2" data-name="Caminho 3936" d="M1678.759,648.823c-8.274-34.159-9.175-76.811-33.083-104.315-20.788-21.328-52.012-25.855-89.914-18-17.188,3.56-44.184,10.177-60.291,10.639-38.31-3.555-92.329-3.648-154.516-22.572l-14.612-2.722c-72.769-17.02-88.868,26.241-125.065,78.559-29.181,39.072-58.469,34.616-95.3,54.453-21.894,13.59-11.626,42.294-4.5,61.7,13.569,32.424,19.014,70.656,46.973,94.034,63.059,46.9,131.337-24.878,178.866-64.688,93.684-83.824,81.467,50.741,153.463,68.639,0,0,15.871,2.273,21.074-.553,21.083-11.446,37.309-32.573,60-56.254,34.989-33.967,63.206-24.936,102.712-38.7C1688.327,699.074,1682.725,669.109,1678.759,648.823Zm-9.218,53.955c-10.789,8.584-25.9,9.375-38.894,11.207-70.212,5.437-86.095,58.259-125.542,83.515-9.32,5.965-17.307,3.469-21.75,3.661-54.686-6.059-62.666-112.643-118.024-92.816-43.372,19.479-72.765,60.707-113.543,84.7-28.933,17.908-69.245,30.544-98.706,7.96-30.99-23.166-36.08-65.031-50.522-99.094-4.524-13.907-11.895-30.485-4.389-44.666a11.552,11.552,0,0,1,3.874-5.417c9.3-10.182,24.1-13.354,36.636-17.216,98.967-23.807,74.3-143.651,187.835-119.587l13.042,2.956s.535.145.8.228c61.915,19.319,154.356,24.213,154.518,24.142.332.036,22.062-1.713,28.953-3.912,20.26-6.462,55.714-15.323,77.042-11.722,12.8,2.159,32.992,10.266,41.858,20.694,25.061,29.478,25.345,69.917,34.22,105.835,2.268,14.447,6.927,31.982-2.728,44.8A11.553,11.553,0,0,1,1669.541,702.779Z" transform="translate(-1092.741 -508.085)" fill="#fff"/>
      </g>
    </g>
  </g>
</svg>
